<svg width="18" height="18" viewBox="0 0 18 18" fill="none" xmlns="http://www.w3.org/2000/svg">
<path d="M10.41 8.99994L16.71 2.70994C16.8983 2.52164 17.0041 2.26624 17.0041 1.99994C17.0041 1.73364 16.8983 1.47825 16.71 1.28994C16.5217 1.10164 16.2663 0.99585 16 0.99585C15.7337 0.99585 15.4783 1.10164 15.29 1.28994L9 7.58994L2.71 1.28994C2.5217 1.10164 2.2663 0.99585 2 0.99585C1.7337 0.99585 1.4783 1.10164 1.29 1.28994C1.1017 1.47825 0.995909 1.73364 0.995908 1.99994C0.995908 2.26624 1.1017 2.52164 1.29 2.70994L7.59 8.99994L1.29 15.2899C1.19627 15.3829 1.12188 15.4935 1.07111 15.6154C1.02034 15.7372 0.994202 15.8679 0.994202 15.9999C0.994202 16.132 1.02034 16.2627 1.07111 16.3845C1.12188 16.5064 1.19627 16.617 1.29 16.7099C1.38296 16.8037 1.49356 16.8781 1.61542 16.9288C1.73728 16.9796 1.86799 17.0057 2 17.0057C2.13201 17.0057 2.26272 16.9796 2.38458 16.9288C2.50644 16.8781 2.61704 16.8037 2.71 16.7099L9 10.4099L15.29 16.7099C15.383 16.8037 15.4936 16.8781 15.6154 16.9288C15.7373 16.9796 15.868 17.0057 16 17.0057C16.132 17.0057 16.2627 16.9796 16.3846 16.9288C16.5064 16.8781 16.617 16.8037 16.71 16.7099C16.8037 16.617 16.8781 16.5064 16.9289 16.3845C16.9797 16.2627 17.0058 16.132 17.0058 15.9999C17.0058 15.8679 16.9797 15.7372 16.9289 15.6154C16.8781 15.4935 16.8037 15.3829 16.71 15.2899L10.41 8.99994Z" fill="#D9B608"/>
</svg>
