<svg width="24" height="24" viewBox="0 0 24 24" fill="none" xmlns="http://www.w3.org/2000/svg">
<circle cx="12" cy="12" r="12" fill="#D9B608"/>
<path d="M13.0575 12.0001L17.7825 7.28264C17.9237 7.14141 18.0031 6.94987 18.0031 6.75014C18.0031 6.55041 17.9237 6.35887 17.7825 6.21764C17.6413 6.07641 17.4497 5.99707 17.25 5.99707C17.0503 5.99707 16.8587 6.07641 16.7175 6.21764L12 10.9426L7.2825 6.21764C7.14127 6.07641 6.94973 5.99707 6.75 5.99707C6.55027 5.99707 6.35873 6.07641 6.2175 6.21764C6.07627 6.35887 5.99693 6.55041 5.99693 6.75014C5.99693 6.94987 6.07627 7.14141 6.2175 7.28264L10.9425 12.0001L6.2175 16.7176C6.1472 16.7874 6.09141 16.8703 6.05333 16.9617C6.01526 17.0531 5.99565 17.1511 5.99565 17.2501C5.99565 17.3491 6.01526 17.4472 6.05333 17.5386C6.09141 17.63 6.1472 17.7129 6.2175 17.7826C6.28722 17.8529 6.37017 17.9087 6.46157 17.9468C6.55296 17.9849 6.65099 18.0045 6.75 18.0045C6.84901 18.0045 6.94704 17.9849 7.03843 17.9468C7.12983 17.9087 7.21278 17.8529 7.2825 17.7826L12 13.0576L16.7175 17.7826C16.7872 17.8529 16.8702 17.9087 16.9616 17.9468C17.053 17.9849 17.151 18.0045 17.25 18.0045C17.349 18.0045 17.447 17.9849 17.5384 17.9468C17.6298 17.9087 17.7128 17.8529 17.7825 17.7826C17.8528 17.7129 17.9086 17.63 17.9467 17.5386C17.9847 17.4472 18.0043 17.3491 18.0043 17.2501C18.0043 17.1511 17.9847 17.0531 17.9467 16.9617C17.9086 16.8703 17.8528 16.7874 17.7825 16.7176L13.0575 12.0001Z" fill="black"/>
</svg>
