<svg width="24" height="26" viewBox="0 0 24 26" fill="none" xmlns="http://www.w3.org/2000/svg">
<path d="M12.5459 5.18299C13.8614 4.96032 14.7926 3.86711 14.8343 2.65662C14.8356 2.64353 14.8362 2.63002 14.8358 2.61592C14.836 2.60242 14.8356 2.58932 14.8343 2.57662C14.7982 1.49268 14.0742 0.540541 12.9689 0.157302C11.8638 -0.226376 10.5586 0.111962 9.81535 0.952875C9.06341 1.80427 8.95362 3.0357 9.58071 3.97819C10.2008 4.90959 11.3871 5.37929 12.5459 5.183L12.5459 5.18299ZM10.1753 1.61663C10.6236 0.91861 11.5292 0.530676 12.3971 0.6891C13.4002 0.872275 14.1081 1.67854 14.1247 2.61633C14.1103 3.42563 13.5775 4.1722 12.7432 4.45453C11.9012 4.73906 10.9449 4.5039 10.3689 3.87077C9.79663 3.24224 9.72371 2.31976 10.1753 1.61668L10.1753 1.61663Z" fill="black"/>
<path d="M23.9913 11.3679C23.9489 9.73828 22.7213 8.17132 20.9215 7.90534C20.3261 7.81728 19.6992 7.8602 19.0987 7.8602C18.4559 7.8602 17.8548 7.86282 17.2515 8.02766C17.033 7.54927 16.7131 7.10936 16.3169 6.74361C15.7018 6.17574 14.8929 5.77553 14.0344 5.6363C13.5143 5.55187 12.9902 5.56879 12.4646 5.56879C11.1736 5.56879 9.86942 5.46542 8.68902 6.05182C7.81745 6.48506 7.15789 7.17909 6.77871 7.99257C5.79058 7.71488 4.67807 7.8106 3.65967 7.82068C1.89714 7.83821 0.426468 9.08476 0.10121 10.6636C-0.0627105 11.4598 0.021759 12.3257 0.021759 13.1309V16.3349C0.021759 16.7605 0.0121545 17.1643 0.236973 17.5569C0.460916 17.948 0.861899 18.24 1.3102 18.3855C1.54549 18.4614 1.78734 18.4806 2.03134 18.4852V24.2284C2.03134 24.3171 2.02894 24.4055 2.03134 24.4938C2.04881 25.1442 2.49014 25.7804 3.20783 25.9284C3.77665 26.0454 4.32995 25.833 4.677 25.4381C5.27896 26.1323 6.45656 26.125 7.0417 25.3577C7.33375 24.9746 7.32894 24.5428 7.32894 24.1013V20.4469L7.32938 17.3756C7.32938 17.1983 7.16633 17.0472 6.97382 17.0472H2.74288V14.3997C2.74288 13.2783 2.78523 12.1486 2.74288 11.0279C2.74223 11.0103 2.74288 10.9926 2.74288 10.9753C2.74288 10.5527 2.03157 10.5521 2.03157 10.9753V17.8198C1.52563 17.7884 1.0463 17.6578 0.817148 17.1621C0.704523 16.918 0.732679 16.6398 0.732679 16.3804V13.5224C0.732679 12.8195 0.726131 12.1161 0.732679 11.4132C0.744902 10.0401 1.74215 8.69641 3.28077 8.49811C3.79392 8.43202 4.34092 8.47675 4.85666 8.47675C5.43091 8.47675 6.00387 8.44632 6.55303 8.6033C6.46223 8.93096 6.41377 9.27073 6.41246 9.61487C6.40941 10.433 6.41246 11.2512 6.41246 12.0689V15.2038C6.41246 15.4845 6.395 15.7706 6.46507 16.0457C6.67439 16.87 7.51666 17.4156 8.39326 17.5163C8.54692 17.5339 8.70145 17.5377 8.85665 17.5381V24.0674C8.85665 24.1672 8.85381 24.2671 8.85665 24.3671C8.8752 25.098 9.40319 25.77 10.1924 25.9393C10.8796 26.0866 11.5881 25.8388 12.0008 25.3396C12.1547 25.5337 12.3563 25.6969 12.6021 25.8093C13.3822 26.1656 14.3372 25.9452 14.8363 25.2842C15.0622 24.9849 15.143 24.6367 15.1449 24.2782C15.1515 22.8683 15.1449 21.4579 15.1449 20.0475V17.5312C15.7646 17.5117 16.3456 17.4182 16.8588 17.0281C17.3409 16.6609 17.5861 16.1386 17.5891 15.5677C17.5943 14.6998 17.5891 13.832 17.5891 12.9646V9.91892C17.5891 9.55983 17.5838 9.20677 17.5162 8.85071C17.5027 8.78059 17.4861 8.71087 17.469 8.64134C17.9446 8.50754 18.4303 8.51681 18.9299 8.51681C19.401 8.51681 19.8716 8.51278 20.3421 8.51681C21.8872 8.53031 23.1025 9.70491 23.2614 11.0946C23.3394 11.7763 23.2809 12.4868 23.2809 13.1705V16.1692C23.2809 16.4215 23.3103 16.6921 23.2743 16.9436C23.2202 17.3207 22.9209 17.6396 22.5453 17.7809C22.3635 17.849 22.1738 17.8669 21.9824 17.8708L21.9822 14.7079C21.9822 13.498 22.0263 12.2807 21.9822 11.0714C21.9815 11.0529 21.9822 11.0339 21.9822 11.015C21.9822 10.5924 21.2709 10.5918 21.2709 11.015V17.0873H17.0399C16.8479 17.0873 16.6844 17.2378 16.6844 17.4155V23.8536C16.6844 24.1301 16.6641 24.4146 16.6946 24.6903C16.8079 25.7057 18.0477 26.3813 19.007 25.7641C19.1366 25.6807 19.2421 25.5858 19.3287 25.4828C19.4413 25.6192 19.59 25.7395 19.7862 25.8379C20.4622 26.1772 21.2997 25.9559 21.7159 25.3679C21.9108 25.0923 21.98 24.7775 21.982 24.4533C21.989 23.2086 21.982 21.9636 21.982 20.7189V18.5175C22.6043 18.4835 23.1772 18.337 23.5993 17.8413C23.9145 17.4709 23.992 17.049 23.992 16.5947L23.9924 13.6164C23.992 12.8676 24.0105 12.1166 23.9911 11.3682L23.9913 11.3679ZM2.74357 24.2198V17.7038H6.61873V23.4635C6.61873 23.7913 6.62179 24.1192 6.61873 24.4467C6.61633 24.677 6.55718 24.8926 6.38693 25.0688C6.08659 25.3797 5.56906 25.3799 5.2685 25.0688C5.09411 24.8884 5.0463 24.6672 5.03539 24.439C5.03692 24.3562 5.0367 24.273 5.0367 24.1894V22.3006L5.03648 19.209V19.0744C5.03648 18.6518 4.32517 18.6512 4.32517 19.0744V23.9246C4.32517 24.11 4.31819 24.2966 4.32757 24.481C4.28654 24.8181 4.16016 25.1204 3.81617 25.2552C3.24802 25.4777 2.75909 24.9902 2.74317 24.4909C2.74077 24.4008 2.74361 24.3099 2.74361 24.2199L2.74357 24.2198ZM14.0273 25.1332C13.3994 25.5771 12.4464 25.2033 12.3626 24.4757C12.3578 24.4362 12.3556 24.3969 12.3539 24.357C12.3582 24.2492 12.3576 24.1404 12.3576 24.0303V18.2433C12.3576 17.8207 11.646 17.8197 11.646 18.2433V23.4928C11.646 23.7711 11.6432 24.0498 11.646 24.328C11.6 24.7343 11.4439 25.0994 10.9829 25.2649C10.2993 25.5105 9.58669 25.0251 9.56858 24.3669C9.56618 24.2728 9.56858 24.1783 9.56858 24.0838V16.6517H14.4342V23.7918C14.4342 24.2745 14.5025 24.797 14.0274 25.1331L14.0273 25.1332ZM16.8785 15.6376C16.8633 16.3318 16.188 16.8154 15.4755 16.8735C15.3664 16.8821 15.2562 16.8839 15.1457 16.8833V13.2648C15.1457 11.8977 15.1911 10.5232 15.1457 9.15655C15.1451 9.13479 15.1457 9.11323 15.1457 9.09126C15.1457 8.6687 14.4344 8.66809 14.4344 9.09126V15.9957H9.56834V12.996C9.56834 11.7162 9.61395 10.4281 9.56834 9.14894V9.09151C9.56834 8.66894 8.85742 8.66833 8.85742 9.09151V16.8765C8.32135 16.861 7.80643 16.7808 7.4234 16.3677C7.16737 16.0914 7.12458 15.7793 7.12458 15.4367V9.97466C7.12458 9.71632 7.11585 9.45559 7.14554 9.19802C7.22935 8.47498 7.58928 7.78139 8.13428 7.25866C8.68649 6.72948 9.41028 6.37967 10.1967 6.26277C10.6433 6.19668 11.1152 6.22529 11.5654 6.22529C12.7042 6.22529 13.9147 6.10257 14.9545 6.61844C16.1713 7.22258 16.8757 8.38468 16.8785 9.64835C16.8805 10.4286 16.8785 11.2086 16.8785 11.9889V15.009C16.8785 15.2187 16.8829 15.4285 16.8785 15.6378V15.6376ZM21.0128 25.1337C20.4887 25.6234 19.7302 25.1857 19.6905 24.5745C19.687 24.5225 19.6861 24.4707 19.6855 24.4185C19.6876 24.3688 19.6892 24.3188 19.6892 24.2686V22.6061L19.689 19.2401V19.1143C19.689 18.6918 18.9776 18.6912 18.9776 19.1143V23.7588C18.9776 23.9564 18.9735 24.1598 18.9824 24.3603C18.9805 24.4187 18.9796 24.4769 18.9776 24.5354C18.9639 24.9418 18.6638 25.3461 18.1869 25.3461C17.7097 25.3461 17.4094 24.9422 17.3959 24.5352C17.3885 24.3026 17.3959 24.0689 17.3959 23.8361L17.3961 20.2176V17.7436H21.2713V23.9872C21.2708 24.3777 21.3372 24.8305 21.0128 25.1338L21.0128 25.1337Z" fill="black"/>
<path d="M19.8195 7.58876C20.9633 7.3675 21.6877 6.36094 21.7256 5.32539C21.7269 5.31229 21.7276 5.29879 21.7272 5.28428C21.7274 5.27078 21.7269 5.25748 21.7256 5.24438C21.6922 4.30575 21.1186 3.42475 20.1508 3.07391C19.1952 2.72751 18.112 3.04711 17.4914 3.78524C16.8503 4.54754 16.767 5.62545 17.2662 6.47178C17.7625 7.3141 18.7973 7.78663 19.8194 7.58874L19.8195 7.58876ZM17.8804 4.42803C18.2196 3.85088 18.9144 3.48115 19.6309 3.61332C20.4826 3.7705 21.0014 4.51609 21.0163 5.28427C21.0034 5.95248 20.6186 6.61263 19.9267 6.87459C19.252 7.13031 18.4804 6.9018 18.0426 6.37545C17.5853 5.82692 17.5237 5.03501 17.8804 4.42804L17.8804 4.42803Z" fill="black"/>
<path d="M3.86376 7.45509C4.81914 7.80148 5.90259 7.48189 6.52316 6.74355C7.16423 5.98125 7.24715 4.90334 6.74841 4.05701C6.25185 3.21552 5.21727 2.74293 4.19467 2.94082C3.05093 3.16188 2.32694 4.16864 2.28877 5.20399C2.28746 5.21709 2.28681 5.23079 2.28724 5.2451C2.28724 5.2586 2.28746 5.2719 2.28877 5.285C2.32217 6.22326 2.89598 7.10447 3.86383 7.45505L3.86376 7.45509ZM4.08814 3.65458C4.76279 3.39866 5.53439 3.62717 5.97224 4.15352C6.42908 4.70246 6.49041 5.49457 6.13398 6.10113C5.79479 6.67829 5.10048 7.04801 4.38392 6.91584C3.5318 6.75866 3.01343 6.01307 2.99835 5.24469C3.01144 4.57669 3.39668 3.91694 4.08817 3.65457L4.08814 3.65458Z" fill="black"/>
</svg>
