<svg width="64" height="59" viewBox="0 0 64 59" fill="none" xmlns="http://www.w3.org/2000/svg">
<path d="M53.5157 4.51611H8.88462C5.76398 4.51611 3.23193 7.00555 3.23193 10.0746V39.8924C3.23193 42.961 5.76356 45.4509 8.88462 45.4509H12.5942L14.6552 41.9768H8.88505C7.70755 41.9768 6.76536 41.0503 6.76536 39.8924L6.76495 17.4856H55.6942V39.8345C55.6942 40.9924 54.7521 41.9189 53.5746 41.9189H47.8044L49.8654 45.393H53.575C56.6956 45.393 59.2277 42.9036 59.2277 39.8345L59.2268 10.0746C59.1681 7.00596 56.6364 4.51611 53.5155 4.51611H53.5157ZM11.5931 12.9695C10.4743 12.9695 9.59129 12.1012 9.59129 11.0011C9.59129 9.90094 10.4743 9.03262 11.5931 9.03262C12.7119 9.03262 13.5949 9.90094 13.5949 11.0011C13.5949 12.1008 12.7119 12.9695 11.5931 12.9695ZM17.4811 12.9695C16.3623 12.9695 15.4793 12.1012 15.4793 11.0011C15.4793 9.90094 16.3623 9.03262 17.4811 9.03262C18.5999 9.03262 19.4829 9.90094 19.4829 11.0011C19.4829 12.1008 18.5999 12.9695 17.4811 12.9695ZM23.4279 12.9695C22.3091 12.9695 21.4261 12.1012 21.4261 11.0011C21.4261 9.90094 22.3091 9.03262 23.4279 9.03262C24.5467 9.03262 25.4297 9.90094 25.4297 11.0011C25.4301 12.1008 24.5467 12.9695 23.4279 12.9695ZM49.9239 12.4481H41.151C40.3267 12.4481 39.679 11.8112 39.679 11.0007C39.679 10.1901 40.3267 9.55319 41.151 9.55319H49.9242C50.7485 9.55319 51.3962 10.1901 51.3962 11.0007C51.3958 11.8112 50.7485 12.4481 49.9238 12.4481H49.9239Z" fill="#F01919"/>
<path d="M33.7319 25.9387C33.2021 25.0122 32.2599 24.4912 31.2003 24.4912C30.1407 24.4912 29.1985 25.0122 28.6687 25.9387L14.9496 49.0402C14.4198 49.9667 14.4198 51.0087 14.9496 51.9352C15.4794 52.8617 16.4216 53.3826 17.4812 53.3826H44.8604C45.9201 53.3826 46.8623 52.8617 47.3921 51.9352C47.9219 51.0087 47.9219 49.9667 47.3921 49.0402L33.7319 25.9387ZM31.2003 31.7866C32.3778 31.7866 33.3787 32.7709 33.32 33.9288L32.9076 41.9189C32.8489 42.7872 32.142 43.4823 31.259 43.4823C30.3759 43.4823 29.6103 42.7876 29.6103 41.9189L29.198 33.9288C29.0218 32.7709 30.0227 31.7866 31.2002 31.7866H31.2003ZM31.2003 49.3878C29.9636 49.3878 28.9627 48.4036 28.9627 47.1876C28.9627 45.9715 29.9636 44.9873 31.2003 44.9873C32.4369 44.9873 33.4378 45.9716 33.4378 47.1876C33.4378 48.4037 32.4369 49.3878 31.2003 49.3878Z" fill="#F01919"/>
</svg>
