<svg width="32" height="32" viewBox="0 0 32 32" fill="none" xmlns="http://www.w3.org/2000/svg">
<path d="M25.8344 6.6665H11.3549C9.61204 6.6665 7.86914 7.4665 6.66252 8.6665L2.23822 13.5998C1.03159 14.9332 1.03159 17.0665 2.23822 18.3998L6.66252 23.3332C7.86914 24.6665 9.61204 25.3332 11.3549 25.3332H25.7005C28.5158 25.3332 30.661 23.1998 30.661 20.5332V11.4665C30.795 8.79984 28.5158 6.6665 25.8344 6.6665Z" fill="black"/>
<path d="M23.3333 11.2003C22.7999 10.667 21.9999 10.667 21.4666 11.2003L18.6666 14.1336L15.8666 11.2003C15.3333 10.667 14.5333 10.667 13.9999 11.2003C13.4666 11.7336 13.4666 12.5336 13.9999 13.067L16.6666 16.0003L13.7333 18.9336C13.1999 19.467 13.1999 20.267 13.7333 20.8003C13.9999 21.067 14.3999 21.2003 14.6666 21.2003C14.9333 21.2003 15.3333 21.067 15.5999 20.8003L18.3999 17.867L21.1999 20.8003C21.4666 21.067 21.8666 21.2003 22.1333 21.2003C22.3999 21.2003 22.7999 21.067 23.0666 20.8003C23.5999 20.267 23.5999 19.467 23.0666 18.9336L20.3999 16.0003L23.1999 13.067C23.8666 12.667 23.8666 11.7336 23.3333 11.2003Z" fill="white"/>
</svg>
