<svg width="24" height="24" viewBox="0 0 24 24" fill="none" xmlns="http://www.w3.org/2000/svg">
<path d="M22.473 4.15387H10.4069L8.79486 0.969242C8.68355 0.68325 8.48597 0.437231 8.2284 0.263955C7.97064 0.0908804 7.66512 -0.00122205 7.35264 1.22453e-05H1.52697C1.12759 0.00227875 0.744824 0.156815 0.459762 0.430853C0.174646 0.704687 0.00967983 1.07659 0 1.46766V22.5324C0.00967929 22.9234 0.174646 23.2953 0.459762 23.5692C0.744878 23.8432 1.1276 23.9977 1.52697 24H22.473C22.8789 23.9975 23.2673 23.838 23.5533 23.556C23.8394 23.2741 24 22.8929 24 22.4955V5.6585C24 5.26103 23.8394 4.87984 23.5533 4.59801C23.2673 4.31593 22.8789 4.15645 22.473 4.15398V4.15387ZM1.52697 0.655447H7.35264C7.53002 0.65895 7.70193 0.717056 7.84396 0.821311C7.9862 0.925778 8.0912 1.07104 8.14443 1.2369L9.87888 4.61543C9.93465 4.73432 10.0563 4.81035 10.1899 4.80932H22.4445C22.6629 4.81179 22.8715 4.89833 23.025 5.05039C23.1787 5.20245 23.2647 5.40767 23.2647 5.62154V7.03375L0.688145 7.03396V1.46752C0.688145 1.25055 0.776729 1.04244 0.934332 0.889984C1.09214 0.737306 1.30551 0.652825 1.52708 0.655299L1.52697 0.655447ZM22.473 23.3448H1.52697C1.3054 23.3472 1.09204 23.2628 0.934219 23.1101C0.776616 22.9576 0.688033 22.7495 0.688033 22.5325V7.76326H23.312V22.5325C23.312 22.7495 23.2234 22.9576 23.0658 23.1101C22.908 23.2628 22.6946 23.3472 22.4731 23.3448H22.473Z" fill="black"/>
</svg>
