<svg width="17" height="16" viewBox="0 0 17 16" fill="none" xmlns="http://www.w3.org/2000/svg">
<path d="M16.9034 8.18381C16.9034 7.63998 16.8587 7.09323 16.7633 6.55823H9.11118V9.63888H13.4932C13.3113 10.6325 12.7271 11.5114 11.8715 12.0699V14.0687H14.4858C16.0211 12.6754 16.9034 10.6178 16.9034 8.18381Z" fill="#4285F4"/>
<path d="M9.11119 16.0001C11.2992 16.0001 13.1444 15.2917 14.4888 14.0688L11.8745 12.0699C11.1472 12.5579 10.2082 12.8342 9.11416 12.8342C6.99769 12.8342 5.20315 11.4261 4.55927 9.53308H1.8615V11.5937C3.2387 14.2952 6.04379 16.0001 9.11119 16.0001Z" fill="#34A853"/>
<path d="M4.55628 9.53307C4.21644 8.5395 4.21644 7.46362 4.55628 6.47006V4.40942H1.86149C0.710842 6.66995 0.710842 9.33318 1.86149 11.5936L4.55628 9.53307Z" fill="#FBBC04"/>
<path d="M9.11119 3.16595C10.2678 3.14832 11.3857 3.57748 12.2233 4.3653L14.5395 2.08125C13.0729 0.723182 11.1263 -0.0234656 9.11119 5.08274e-05C6.04377 5.08274e-05 3.2387 1.705 1.8615 4.40938L4.55628 6.47002C5.19718 4.574 6.9947 3.16595 9.11119 3.16595Z" fill="#EA4335"/>
</svg>
