<svg width="24" height="24" viewBox="0 0 24 24" fill="none" xmlns="http://www.w3.org/2000/svg">
<path d="M12.0013 23.9995H0.614723C0.39169 24.0012 0.185543 23.881 0.0771567 23.6863C-0.0315013 23.4912 -0.0249622 23.2526 0.0940409 23.0641L2.4608 19.2728C0.820611 17.1195 -0.0437863 14.4745 0.00850003 11.768C0.0607864 9.0615 1.02648 6.4519 2.74865 4.36364C4.47111 2.27544 6.84874 0.830897 9.49548 0.265142C12.1422 -0.300905 14.9025 0.0453189 17.328 1.24686C19.7533 2.44839 21.7012 4.43505 22.8551 6.88391C24.0089 9.33277 24.3011 12.1001 23.684 14.736C23.067 17.3717 21.577 19.7217 19.4562 21.4035C17.3353 23.0853 14.7082 24.0006 12.0015 24L12.0013 23.9995ZM1.71274 22.7792H12.0013C15.2965 22.7838 18.4129 21.2826 20.464 18.7027C22.5149 16.1231 23.2752 12.7477 22.5288 9.53752C21.7823 6.3273 19.6108 3.63381 16.6324 2.22448C13.6537 0.814795 10.1946 0.843386 7.23968 2.30211C4.28495 3.76054 2.15808 6.48945 1.46476 9.71139C0.771422 12.9336 1.58758 16.2958 3.68066 18.8417C3.84569 19.0465 3.86502 19.3323 3.72967 19.5576L1.71274 22.7792Z" fill="black"/>
<path d="M16.8809 8.74525H7.12075C6.78389 8.74525 6.51074 8.47203 6.51074 8.13508C6.51074 7.79812 6.78389 7.5249 7.12075 7.5249H16.8809C17.2177 7.5249 17.4909 7.79812 17.4909 8.13508C17.4909 8.47203 17.2177 8.74525 16.8809 8.74525Z" fill="black"/>
<path d="M12.9768 16.515H7.12075C6.78389 16.515 6.51074 16.2418 6.51074 15.9049C6.51074 15.5679 6.78389 15.2947 7.12075 15.2947H12.9768C13.3137 15.2947 13.5868 15.5679 13.5868 15.9049C13.5868 16.2418 13.3137 16.515 12.9768 16.515Z" fill="black"/>
<path d="M16.8809 12.61H7.12075C6.78389 12.61 6.51074 12.3368 6.51074 11.9998C6.51074 11.6629 6.78389 11.3896 7.12075 11.3896H16.8809C17.2177 11.3896 17.4909 11.6629 17.4909 11.9998C17.4909 12.3368 17.2177 12.61 16.8809 12.61Z" fill="black"/>
</svg>
