<svg width="24" height="28" viewBox="0 0 24 28" fill="none" xmlns="http://www.w3.org/2000/svg">
<path d="M8.28755 0L0 6.31429V28L2.84995 26.9142L5.13746 27.7714L7.42497 26.9142L9.71249 27.7714L12 26.9142L14.2875 27.7714L16.575 26.9142L18.8625 27.7714L21.15 26.9142L24 28V0H8.28755ZM7.9501 1.48556V6.08556H1.91257L7.9501 1.48556ZM22.7252 26.5998L21.0377 25.9428L18.7502 26.7999L16.4627 25.9428L14.1752 26.7999L11.8877 25.9428L9.60018 26.7999L7.31267 25.9428L5.02516 26.7999L2.73764 25.9428L1.0502 26.5998V6.9427H9.00024V0.85699H22.6503V26.5998H22.7252Z" fill="black"/>
<path d="M15.9001 8.65718V13.0001L11.7001 12.9999L8.81252 8.65698H7.35001V12.9999H5.0625V13.8571H7.35001V15.5999H5.0625V16.4571H7.35001V20.8H8.47508V16.4571H12.675L15.5626 20.8H17.0251V16.4571H18.7126V15.5999H17.0251V13.8571H18.7126V12.9999H17.0251V8.65719L15.9001 8.65718ZM8.51252 10.1143L10.4252 12.9999H8.51272L8.51252 10.1143ZM8.51252 15.6V13.8571H10.9876L12.15 15.6H8.51252ZM15.9001 19.3428L13.9876 16.4571H15.9001V19.3428ZM15.9001 15.6H13.425L12.2625 13.8571H15.9001V15.6Z" fill="black"/>
</svg>
