<svg width="64" height="64" viewBox="0 0 64 64" fill="none" xmlns="http://www.w3.org/2000/svg">
<circle cx="31.9999" cy="31.9999" r="28.9391" fill="#06D6A0"/>
<circle cx="32" cy="32" r="31.5" stroke="#048362" stroke-dasharray="12 18"/>
<path d="M47.5594 20.8927C47.3439 20.6754 47.0874 20.5028 46.8048 20.3851C46.5222 20.2674 46.2192 20.2068 45.913 20.2068C45.6069 20.2068 45.3038 20.2674 45.0213 20.3851C44.7387 20.5028 44.4822 20.6754 44.2667 20.8927L26.9913 38.1912L19.7333 30.9101C19.5095 30.6939 19.2453 30.5239 18.9558 30.4098C18.6663 30.2957 18.3571 30.2397 18.046 30.2451C17.7348 30.2505 17.4278 30.3171 17.1424 30.4412C16.857 30.5652 16.5988 30.7442 16.3826 30.9681C16.1664 31.1919 15.9964 31.4561 15.8823 31.7456C15.7682 32.0351 15.7123 32.3443 15.7176 32.6554C15.723 32.9666 15.7896 33.2736 15.9137 33.559C16.0377 33.8444 16.2168 34.1026 16.4406 34.3188L25.3449 43.2231C25.5605 43.4405 25.817 43.613 26.0995 43.7307C26.3821 43.8484 26.6852 43.909 26.9913 43.909C27.2974 43.909 27.6005 43.8484 27.8831 43.7307C28.1657 43.613 28.4221 43.4405 28.6377 43.2231L47.5594 24.3014C47.7948 24.0843 47.9826 23.8207 48.1111 23.5274C48.2396 23.234 48.3059 22.9173 48.3059 22.597C48.3059 22.2768 48.2396 21.96 48.1111 21.6667C47.9826 21.3734 47.7948 21.1098 47.5594 20.8927Z" fill="white"/>
</svg>
