<svg width="24" height="24" viewBox="0 0 24 24" fill="none" xmlns="http://www.w3.org/2000/svg">
<path d="M22.9813 18.1823C22.8816 17.2789 22.3828 16.5763 21.5849 16.0745L17.994 13.9667C16.8968 13.3645 15.5004 13.5652 14.6027 14.3682L14.2037 14.7697C12.3085 13.5652 10.4134 11.6582 9.21642 9.75119L9.6154 9.34971C10.5131 8.54675 10.7126 7.14158 10.1141 6.03751L8.01947 2.4242C7.62049 1.62124 6.82253 1.11939 5.92482 1.01902C5.12685 0.91865 4.22914 1.21976 3.63067 1.82198L2.43373 3.02642C1.03729 4.43159 0.638305 6.33862 1.33653 8.0449C2.33398 10.3534 4.02965 13.766 7.12176 16.8774C10.2139 19.9889 13.6052 21.7956 15.8994 22.6989C16.4978 22.8996 17.0963 23 17.595 23C18.792 23 19.9889 22.4982 20.8866 21.5948L22.0836 20.3904C22.7818 19.8885 23.081 18.9852 22.9813 18.1823Z" fill="#D9B608"/>
<path fill-rule="evenodd" clip-rule="evenodd" d="M16.3647 7.63484C15.8073 7.07743 14.9437 6.87086 14.3163 7.08002C13.7923 7.25467 13.226 6.97151 13.0513 6.44757C12.8767 5.92362 13.1599 5.3573 13.6838 5.18265C15.1042 4.70919 16.7436 5.18524 17.7789 6.22063C18.8143 7.25601 19.2904 8.89537 18.8169 10.3158C18.6423 10.8397 18.076 11.1229 17.552 10.9482C17.0281 10.7736 16.7449 10.2073 16.9196 9.68332C17.1287 9.05585 16.9221 8.19225 16.3647 7.63484Z" fill="#D9B608"/>
<path fill-rule="evenodd" clip-rule="evenodd" d="M18.9741 5.0258C17.1865 3.23819 14.5882 2.60916 12.26 3.23598C11.7267 3.37956 11.178 3.06363 11.0344 2.53034C10.8908 1.99704 11.2067 1.44833 11.74 1.30475C14.7375 0.497744 18.0793 1.30255 20.3883 3.61158C22.6974 5.92062 23.5022 9.26243 22.6952 12.2599C22.5516 12.7932 22.0029 13.1091 21.4696 12.9655C20.9363 12.8219 20.6203 12.2732 20.7639 11.7399C21.3907 9.41174 20.7617 6.81341 18.9741 5.0258Z" fill="#D9B608"/>
</svg>
