<svg width="16" height="16" viewBox="0 0 16 16" fill="none" xmlns="http://www.w3.org/2000/svg">
<path d="M15.3209 12.1219C15.2544 11.5196 14.9219 11.0512 14.3899 10.7167L11.996 9.31146C11.2645 8.90999 10.3336 9.04379 9.73513 9.57913L9.46913 9.84679C8.20567 9.04379 6.94227 7.77246 6.14428 6.50112L6.41027 6.23347C7.00873 5.69816 7.14173 4.76138 6.74273 4.02533L5.34631 1.61646C5.08033 1.08115 4.54835 0.746586 3.94988 0.679672C3.4179 0.612759 2.81943 0.813499 2.42045 1.21498L1.62249 2.01794C0.691527 2.95472 0.425538 4.22607 0.89102 5.36359C1.55599 6.90259 2.68643 9.17766 4.74784 11.2519C6.80927 13.3263 9.07013 14.5307 10.5996 15.1329C10.9985 15.2667 11.3975 15.3337 11.73 15.3337C12.528 15.3337 13.3259 14.9991 13.9244 14.3969L14.7224 13.5939C15.1879 13.2593 15.3873 12.6571 15.3209 12.1219Z" fill="black"/>
<path fill-rule="evenodd" clip-rule="evenodd" d="M10.9098 5.09022C10.5382 4.71861 9.96247 4.5809 9.5442 4.72034C9.19487 4.83677 8.81733 4.648 8.70087 4.29871C8.58447 3.94941 8.77327 3.57186 9.12253 3.45543C10.0695 3.13979 11.1624 3.45715 11.8526 4.14741C12.5429 4.83767 12.8603 5.93057 12.5446 6.87753C12.4282 7.2268 12.0507 7.4156 11.7013 7.29913C11.3521 7.18273 11.1633 6.8052 11.2797 6.45587C11.4191 6.03756 11.2814 5.46183 10.9098 5.09022Z" fill="black"/>
<path fill-rule="evenodd" clip-rule="evenodd" d="M12.6494 3.35086C11.4577 2.15912 9.72547 1.73977 8.17333 2.15765C7.8178 2.25337 7.452 2.04275 7.35627 1.68722C7.26053 1.33169 7.47113 0.965878 7.82667 0.870158C9.825 0.332155 12.0529 0.868692 13.5922 2.40805C15.1316 3.94741 15.6681 6.17528 15.1301 8.17359C15.0344 8.52913 14.6686 8.73973 14.3131 8.64399C13.9575 8.54826 13.7469 8.18246 13.8426 7.82692C14.2605 6.27482 13.8411 4.5426 12.6494 3.35086Z" fill="black"/>
</svg>
