<svg width="24" height="24" viewBox="0 0 24 24" fill="none" xmlns="http://www.w3.org/2000/svg">
<path d="M22 11H20.4C20 7.1 16.9 4 13 3.6V2C13 1.4 12.6 1 12 1C11.4 1 11 1.4 11 2V3.6C7.1 4 4 7.1 3.6 11H2C1.4 11 1 11.4 1 12C1 12.6 1.4 13 2 13H3.6C4.1 16.9 7.1 20 11 20.4V22C11 22.6 11.4 23 12 23C12.6 23 13 22.6 13 22V20.4C16.9 19.9 20 16.9 20.4 13H22C22.6 13 23 12.6 23 12C23 11.4 22.6 11 22 11Z" fill="#D9B608"/>
<path d="M12 15.3002C13.8225 15.3002 15.3 13.8227 15.3 12.0002C15.3 10.1777 13.8225 8.7002 12 8.7002C10.1774 8.7002 8.69995 10.1777 8.69995 12.0002C8.69995 13.8227 10.1774 15.3002 12 15.3002Z" fill="white"/>
</svg>
