<svg width="20" height="19" viewBox="0 0 20 19" fill="none" xmlns="http://www.w3.org/2000/svg">
<path d="M19.1201 9.88C19.1201 4.8496 15.0305 0.760001 10.0001 0.760001C4.96972 0.760001 0.880116 4.8496 0.880117 9.88C0.880117 14.9104 4.96972 19 10.0001 19C15.0305 19 19.1201 14.9104 19.1201 9.88ZM9.48172 14.9872L6.16015 11.6655C6.02569 11.531 5.94894 11.3391 5.94894 11.1471C5.94894 10.955 6.02569 10.7822 6.16015 10.6286C6.4481 10.3407 6.90895 10.3407 7.17775 10.6286L9.27052 12.7215L9.27052 5.29113C9.27052 4.88786 9.5969 4.5615 10.0002 4.5615C10.4034 4.5615 10.7298 4.88788 10.7298 5.29113L10.7298 12.7215L12.8034 10.6288C13.0913 10.3408 13.5522 10.3408 13.821 10.6288C14.1089 10.9167 14.1089 11.3776 13.821 11.6464L10.4994 14.9679C10.365 15.1024 10.173 15.1791 9.98099 15.1791C9.78893 15.1791 9.61615 15.1215 9.48172 14.9872L9.48172 14.9872Z" fill="#F01919"/>
</svg>
