<svg width="16" height="16" viewBox="0 0 16 16" fill="none" xmlns="http://www.w3.org/2000/svg">
<path fill-rule="evenodd" clip-rule="evenodd" d="M16 8C16 3.58207 12.4179 0 8 0C3.58207 0 0 3.58207 0 8C0 11.9927 2.92508 15.3024 6.75012 15.9033V10.3131H4.71832V8H6.75012V6.23708C6.75012 4.23228 7.94488 3.12414 9.7719 3.12414C10.6471 3.12414 11.5629 3.28051 11.5629 3.28051V5.24932H10.5538C9.56041 5.24932 9.24988 5.86583 9.24988 6.4992V7.99993H11.4683L11.114 10.313H9.24981V15.9032C13.0749 15.3036 15.9999 11.9938 15.9999 7.99993L16 8Z" fill="#1977F3"/>
<path fill-rule="evenodd" clip-rule="evenodd" d="M11.114 10.313L11.4684 7.99994H9.24993V6.49921C9.24993 5.86696 9.5593 5.24933 10.5538 5.24933H11.563V3.28052C11.563 3.28052 10.6473 3.12415 9.77195 3.12415C7.94494 3.12415 6.75019 4.23119 6.75019 6.23709V8.00001H4.71838V10.3131H6.75019V15.9033C7.15742 15.9673 7.5748 16 8.00007 16C8.42532 16 8.8427 15.9662 9.24993 15.9033V10.3131H11.1141L11.114 10.313Z" fill="#FEFEFE"/>
</svg>
