<svg width="24" height="24" viewBox="0 0 24 24" fill="none" xmlns="http://www.w3.org/2000/svg">
<path d="M11.9972 11.7526C11.9137 11.7526 11.825 11.7331 11.7467 11.6939L0.271473 5.81513C0.0992896 5.72691 -0.00498626 5.55062 0.000183715 5.36933C0.00535278 5.18317 0.125313 5.01659 0.308014 4.9431L11.7833 0.0440713C11.9189 -0.0146904 12.0754 -0.0146904 12.2162 0.0440713L23.6915 4.9431C23.874 5.02145 23.9888 5.18802 23.9993 5.36933C24.0098 5.55064 23.9002 5.72692 23.728 5.81513L12.2528 11.6939C12.1693 11.7282 12.0859 11.7526 11.9972 11.7526ZM1.69006 5.42303L11.9972 10.7043L22.3093 5.42303L11.9972 1.01901L1.69006 5.42303Z" fill="black"/>
<path d="M17.7352 8.81317C17.6518 8.81317 17.5735 8.79359 17.4953 8.75927L6.54161 3.37038C6.286 3.24298 6.1869 2.94901 6.32254 2.70892C6.45819 2.46885 6.77118 2.37577 7.02681 2.50317L17.9805 7.89206C18.2361 8.01946 18.3352 8.31343 18.1996 8.55352C18.1054 8.71524 17.9229 8.81317 17.7352 8.81317H17.7352Z" fill="black"/>
<path d="M11.9971 24C11.9032 24 11.8146 23.9756 11.7312 23.9314C11.5747 23.8431 11.4756 23.6816 11.4756 23.51V11.2626C11.4756 11.0813 11.5799 10.9198 11.7469 10.8315L23.2221 4.95278C23.3838 4.86957 23.582 4.87443 23.7385 4.96265C23.895 5.05088 23.9941 5.21243 23.9941 5.38403V17.6314C23.9941 17.8127 23.8898 17.9742 23.7228 18.0625L12.2475 23.9412C12.1693 23.9754 12.0859 23.9998 11.9971 23.9998L11.9971 24ZM12.5189 11.5516V22.6821L22.951 17.3374V6.20689L12.5189 11.5516Z" fill="black"/>
<path d="M11.997 24C11.9136 24 11.8248 23.9804 11.7465 23.9412L0.271289 18.0625C0.104454 17.9743 0 17.8127 0 17.6314L0.000178246 5.38403C0.000178246 5.2126 0.099284 5.05088 0.255784 4.96265C0.412284 4.87443 0.610491 4.86957 0.772143 4.95278L12.2474 10.8315C12.4142 10.9198 12.5187 11.0813 12.5187 11.2626V23.51C12.5187 23.6814 12.4196 23.8431 12.2631 23.9314C12.1848 23.9756 12.0909 24 11.997 24H11.997ZM1.04329 17.3374L11.4754 22.6821V11.5516L1.04329 6.20689V17.3374Z" fill="black"/>
<path d="M8.3466 18.1214C8.26836 18.1214 8.18494 18.1018 8.11186 18.0675L3.93914 16.1079C3.76179 16.0247 3.65234 15.8531 3.65234 15.6719V11.2628C3.65234 11.0913 3.74628 10.9345 3.89743 10.8464C4.04876 10.7582 4.24163 10.7485 4.40348 10.8268L8.57619 12.7864C8.75355 12.8696 8.86299 13.0412 8.86299 13.2223V17.6315C8.86299 17.8029 8.76906 17.9598 8.6179 18.0479C8.53966 18.0969 8.44572 18.1214 8.34661 18.1214L8.3466 18.1214ZM4.69541 15.3681L7.82504 16.8378V13.5261L4.69541 12.0564V15.3681Z" fill="black"/>
<path d="M19.8214 16.6516C19.5346 16.6516 19.2998 16.4311 19.2998 16.1617V10.7728C19.2998 10.5915 19.4041 10.4249 19.5763 10.3417C19.7484 10.2585 19.9518 10.2682 20.1135 10.3662L21.6783 11.346C21.9182 11.4978 21.9808 11.8015 21.8243 12.027C21.6678 12.2524 21.3393 12.3111 21.0992 12.1642L20.3429 11.6939V16.1618C20.3429 16.4311 20.1135 16.6516 19.8213 16.6516L19.8214 16.6516Z" fill="black"/>
<path d="M18.2565 13.2223C18.1468 13.2223 18.0374 13.188 17.9435 13.1244C17.7139 12.9626 17.667 12.6541 17.8392 12.4385L19.404 10.4789C19.5762 10.2633 19.9047 10.2192 20.1343 10.381C20.3638 10.5427 20.4107 10.8512 20.2385 11.0669L18.6737 13.0264C18.5746 13.1537 18.4181 13.2223 18.2565 13.2223L18.2565 13.2223Z" fill="black"/>
<path d="M15.6487 18.611C15.3619 18.611 15.1271 18.3906 15.1271 18.1212L15.127 12.7323C15.127 12.551 15.2312 12.3844 15.4034 12.3012C15.5756 12.218 15.779 12.2277 15.9406 12.3256L17.5054 13.3055C17.7454 13.4573 17.8079 13.761 17.6514 13.9865C17.4898 14.2119 17.1664 14.2706 16.9263 14.1236L16.17 13.6534L16.1702 18.1212C16.1702 18.3908 15.9406 18.6113 15.6486 18.6113L15.6487 18.611Z" fill="black"/>
<path d="M14.0836 15.1818C13.974 15.1818 13.8645 15.1474 13.7706 15.0838C13.541 14.9221 13.4941 14.6136 13.6663 14.3979L15.2311 12.4384C15.4033 12.2227 15.7319 12.1787 15.9614 12.3404C16.191 12.5022 16.2379 12.8107 16.0657 13.0263L14.5009 14.9859C14.4018 15.1133 14.2453 15.1818 14.0836 15.1818L14.0836 15.1818Z" fill="black"/>
</svg>
