<svg width="24" height="20" viewBox="0 0 24 20" fill="none" xmlns="http://www.w3.org/2000/svg">
<path d="M0 0.625C0 0.28125 0.24 0 0.533333 0H23.4667C23.76 0 24 0.28125 24 0.625C24 0.96875 23.76 1.25 23.4667 1.25H0.533333C0.24 1.25 0 0.96875 0 0.625ZM23.4667 9.375H0.533333C0.24 9.375 0 9.65625 0 10C0 10.3438 0.24 10.625 0.533333 10.625H23.4667C23.76 10.625 24 10.3438 24 10C24 9.65625 23.76 9.375 23.4667 9.375ZM23.4667 18.75H0.533333C0.24 18.75 0 19.0312 0 19.375C0 19.7188 0.24 20 0.533333 20H23.4667C23.76 20 24 19.7188 24 19.375C24 19.0312 23.76 18.75 23.4667 18.75Z" fill="black"/>
</svg>
