<svg width="24" height="24" viewBox="0 0 24 24" fill="none" xmlns="http://www.w3.org/2000/svg">
<path d="M12 0C5.38357 0 0 5.38357 0 12C0 18.6164 5.38357 24 12 24C18.6164 24 24 18.6164 24 12C24 5.38357 18.6164 0 12 0ZM12 21.8181C6.58698 21.8181 2.18195 17.4131 2.18195 12C2.18195 6.58693 6.58693 2.18195 12 2.18195C17.4131 2.18195 21.8181 6.58693 21.8181 12C21.8181 17.4131 17.4131 21.8181 12 21.8181Z" fill="black"/>
<path d="M12 5.45459C11.3979 5.45459 10.9092 5.9433 10.9092 6.54542V14.1815C10.9092 14.7837 11.3979 15.2724 12 15.2724C12.6021 15.2724 13.0908 14.7837 13.0908 14.1815V6.54542C13.0908 5.9433 12.6021 5.45459 12 5.45459Z" fill="black"/>
<path d="M13.0908 17.4545C13.0908 18.057 12.6025 18.5454 12 18.5454C11.3975 18.5454 10.9092 18.057 10.9092 17.4545C10.9092 16.852 11.3975 16.3635 12 16.3635C12.6025 16.3635 13.0908 16.852 13.0908 17.4545Z" fill="black"/>
</svg>
