<svg width="22" height="22" viewBox="0 0 22 22" fill="none" xmlns="http://www.w3.org/2000/svg">
<path d="M0.754905 9.94999H9.69982C9.97482 9.94999 10.1998 9.72499 10.1998 9.44997V0.500023C10.1998 0.225024 9.97484 0 9.69982 0H0.754905C0.479907 0 0.254883 0.225001 0.254883 0.500023V9.44494C0.254883 9.72494 0.479884 9.94994 0.754905 9.94994V9.94999Z" fill="#C4C4C4"/>
<path d="M12.2949 9.94999H21.2399C21.5149 9.94999 21.7399 9.72499 21.7399 9.44997V0.500023C21.7399 0.225024 21.5149 0 21.2399 0H12.2949C12.0199 0 11.7949 0.225001 11.7949 0.500023V9.44494C11.7949 9.72494 12.0199 9.94994 12.2949 9.94994V9.94999Z" fill="#C4C4C4"/>
<path d="M0.754905 21.49H9.69982C9.97482 21.49 10.1998 21.265 10.1998 20.99V12.0401C10.1998 11.7651 9.97484 11.54 9.69982 11.54H0.754905C0.479907 11.54 0.254883 11.765 0.254883 12.0401V20.985C0.254883 21.265 0.479884 21.49 0.754905 21.49V21.49Z" fill="#C4C4C4"/>
<path d="M12.2949 21.49H21.2399C21.5149 21.49 21.7399 21.265 21.7399 20.99V12.0401C21.7399 11.7651 21.5149 11.54 21.2399 11.54H12.2949C12.0199 11.54 11.7949 11.765 11.7949 12.0401V20.985C11.7949 21.265 12.0199 21.49 12.2949 21.49V21.49Z" fill="#C4C4C4"/>
</svg>
