<svg width="20" height="20" viewBox="0 0 20 20" fill="none" xmlns="http://www.w3.org/2000/svg">
<path d="M18.8868 1.13145C17.2347 -0.50593 14.6647 -0.324 13.1961 1.40435L11.1768 3.86043L2.45718 2.31401C1.81468 2.22304 1.0804 2.40498 0.621469 2.95077C-0.204601 3.76946 -0.204601 5.13395 0.621469 5.95264C0.713259 6.04361 0.896829 6.13457 1.0804 6.22554L6.58754 9.2274L0.529679 16.2318C-0.204601 17.1414 -0.204601 18.5059 0.713259 19.3246C1.53933 20.1433 2.91611 20.2343 3.83397 19.5065L10.7179 13.3209L13.7468 18.7788C14.4811 19.9614 16.1333 20.2343 17.1429 19.2337C17.51 18.8698 17.7854 18.324 17.7854 17.7782C17.7854 17.6872 17.7854 17.5053 17.7854 17.4143L16.225 8.8635L18.7032 6.8623C18.795 6.77133 18.8868 6.68037 18.9786 6.5894C20.3554 5.13395 20.3554 2.67787 18.8868 1.13145Z" fill="black"/>
</svg>
