<svg width="20" height="20" viewBox="0 0 20 20" fill="none" xmlns="http://www.w3.org/2000/svg">
<path d="M15.167 2.83336C13.5837 1.41669 11.5004 0.666685 9.3337 0.916689C6.00033 1.16669 3.25033 3.58336 2.66699 6.66669C2.25033 8.66666 2.66699 10.6667 3.91699 12.3333L8.16699 18.25C8.50037 18.8333 9.25037 19.1667 10.0004 19.1667C10.7504 19.1667 11.5004 18.8333 11.917 18.1667L16.167 12.25C17.0837 11 17.5004 9.58333 17.5004 8.08336C17.5004 6.08336 16.667 4.16669 15.167 2.83336Z" fill="#D9B608"/>
<path d="M10.0003 10.9164C11.5652 10.9164 12.8337 9.64792 12.8337 8.08309C12.8337 6.51829 11.5652 5.24976 10.0003 5.24976C8.43549 5.24976 7.16699 6.51829 7.16699 8.08309C7.16699 9.64792 8.43549 10.9164 10.0003 10.9164Z" fill="white"/>
</svg>
