<svg width="24" height="24" viewBox="0 0 24 24" fill="none" xmlns="http://www.w3.org/2000/svg">
<path d="M18.2 3.40003C16.3 1.70003 13.8 0.800022 11.2 1.10003C7.19995 1.40003 3.89995 4.30003 3.19995 8.00003C2.69995 10.4 3.19995 12.8 4.69995 14.8L9.79995 21.9C10.2 22.6 11.1 23 12 23C12.9 23 13.8 22.6 14.3 21.8L19.4 14.7C20.5 13.2 21 11.5 21 9.70003C21 7.30003 20 5.00003 18.2 3.40003Z" fill="#CC5500"/>
<path d="M12.0001 13.0998C13.8779 13.0998 15.4001 11.5776 15.4001 9.6998C15.4001 7.82204 13.8779 6.2998 12.0001 6.2998C10.1223 6.2998 8.6001 7.82204 8.6001 9.6998C8.6001 11.5776 10.1223 13.0998 12.0001 13.0998Z" fill="white"/>
</svg>
