<svg width="24" height="24" viewBox="0 0 24 24" fill="none" xmlns="http://www.w3.org/2000/svg">
<path d="M16.4 20.1001H3.6C2.2 20.1001 1 18.9001 1 17.5001V10.2001C1 8.8001 2.2 7.6001 3.6 7.6001H16.4C17.8 7.6001 19 8.8001 19 10.2001V17.5001C19 18.9001 17.8 20.1001 16.4 20.1001Z" fill="#D9B608"/>
<path d="M22.0001 16.1C21.4001 16.1 21.0001 15.7 21.0001 15.1V6.7C21.0001 6.3 20.8001 6 20.5001 6H5.1001C4.5001 6 4.1001 5.6 4.1001 5C4.1001 4.4 4.5001 4 5.1001 4H20.5001C21.9001 4 23.0001 5.2 23.0001 6.7V15.1C23.0001 15.6 22.6001 16.1 22.0001 16.1Z" fill="#D9B608"/>
<path d="M10 16.7998C8.3 16.7998 7 15.4998 7 13.7998C7 12.0998 8.3 10.7998 10 10.7998C11.7 10.7998 13 12.0998 13 13.7998C13 15.4998 11.7 16.7998 10 16.7998Z" fill="white"/>
<path d="M4.3001 14.5001C4.6867 14.5001 5.0001 14.1867 5.0001 13.8001C5.0001 13.4135 4.6867 13.1001 4.3001 13.1001C3.9135 13.1001 3.6001 13.4135 3.6001 13.8001C3.6001 14.1867 3.9135 14.5001 4.3001 14.5001Z" fill="white"/>
<path d="M15.7 14.5001C16.0866 14.5001 16.4 14.1867 16.4 13.8001C16.4 13.4135 16.0866 13.1001 15.7 13.1001C15.3134 13.1001 15 13.4135 15 13.8001C15 14.1867 15.3134 14.5001 15.7 14.5001Z" fill="white"/>
</svg>
