<svg width="32" height="32" viewBox="0 0 32 32" fill="none" xmlns="http://www.w3.org/2000/svg">
<path d="M15.9816 26.7355C17.3129 26.7355 18.3881 25.7371 18.5161 24.4316H13.4473C13.5753 25.7372 14.6505 26.7355 15.9817 26.7355H15.9816Z" fill="black"/>
<path d="M23.4055 19.8235V14.7547C23.4055 12.9115 22.7142 11.145 21.4342 9.81386C21.0246 9.37868 20.5639 8.99457 20.0774 8.68742C20.0774 8.68742 18.7974 7.97062 17.9013 7.76582C17.8758 7.76582 17.8501 7.76582 17.8245 7.74028C17.8758 7.56099 17.9013 7.35635 17.9013 7.17708C17.9013 6.12743 17.031 5.25708 15.9813 5.25708C14.9317 5.25708 14.0613 6.12743 14.0613 7.17708C14.0613 7.3819 14.0869 7.56101 14.1637 7.74028C12.7814 8.04743 11.5269 8.76419 10.5285 9.81383C9.24864 11.1449 8.55758 12.9113 8.55758 14.7546V18.7994H20.0776C20.3592 18.7994 20.5895 19.0298 20.5895 19.3114C20.5895 19.593 20.3592 19.8233 20.0776 19.8233H8.55758C7.58473 19.8233 6.76562 20.6169 6.76562 21.6153C6.76562 22.5881 7.58492 23.4072 8.55758 23.4072H16.212L22.6376 23.4074H23.4056C24.3785 23.4074 25.1976 22.5881 25.1976 21.6155C25.1976 20.6169 24.3783 19.8233 23.4054 19.8233L23.4055 19.8235Z" fill="black"/>
<circle cx="9" cy="10" r="4" fill="#D9B608"/>
</svg>
