<svg width="24" height="24" viewBox="0 0 24 24" fill="none" xmlns="http://www.w3.org/2000/svg">
<path fill-rule="evenodd" clip-rule="evenodd" d="M10.4597 0.75C6.19343 0.75 2.67178 4.78798 2.67178 9.80454V13.4288L1.22169 16.0543C0.0129488 18.169 1.27192 20.8295 3.35795 20.8295H17.6614C18.68 20.8295 19.5054 20.106 19.9256 19.1957C20.3486 18.2792 20.4145 17.0478 19.7806 16.0249L18.2475 13.4124V9.80454C18.2475 7.30719 17.3446 4.95023 15.9785 3.36708C15.97 3.35729 15.9614 3.34769 15.9526 3.3383C14.5144 1.79995 12.6097 0.75 10.4597 0.75ZM7.84319 21.8864C7.35375 21.8864 6.95698 22.3595 6.95698 22.9432C6.95698 23.5269 7.35375 24 7.84319 24H13.1605C13.6499 24 14.0467 23.5269 14.0467 22.9432C14.0467 22.3595 13.6499 21.8864 13.1605 21.8864H7.84319Z" fill="#D9B608"/>
</svg>
