<svg width="21" height="24" viewBox="0 0 21 24" fill="none" xmlns="http://www.w3.org/2000/svg">
<path fill-rule="evenodd" clip-rule="evenodd" d="M10.0229 0C5.61902 0 1.98377 4.16823 1.98377 9.34663V13.0877L0.486908 15.798C-0.760827 17.9809 0.538759 20.7273 2.69207 20.7273H17.4569C18.5084 20.7273 19.3604 19.9804 19.7942 19.0407C20.2308 18.0947 20.2988 16.8236 19.6445 15.7677L18.062 13.0708V9.34663C18.062 6.76871 17.13 4.33572 15.7197 2.70151C15.7109 2.69139 15.702 2.68149 15.693 2.67179C14.2085 1.08382 12.2423 0 10.0229 0ZM7.322 21.8182C6.81678 21.8182 6.4072 22.3066 6.4072 22.9091C6.4072 23.5116 6.81678 24 7.322 24H12.8108C13.316 24 13.7256 23.5116 13.7256 22.9091C13.7256 22.3066 13.316 21.8182 12.8108 21.8182H7.322Z" fill="black"/>
</svg>
