<svg width="22" height="26" viewBox="0 0 22 26" fill="none" xmlns="http://www.w3.org/2000/svg">
<path d="M5.2522 2.23897C5.02952 2.23897 4.86523 2.4079 4.86523 2.61522V4.93467C4.86523 4.98449 4.87506 5.03378 4.89416 5.07967C4.91345 5.12574 4.94166 5.16735 4.97702 5.20235C5.01238 5.23735 5.05452 5.26503 5.10059 5.2836C5.14684 5.30217 5.19631 5.31146 5.24613 5.31092H16.7721C16.8722 5.31092 16.9685 5.27146 17.0399 5.20092C17.1112 5.13057 17.1519 5.03485 17.153 4.93468V2.61522C17.153 2.40486 16.9794 2.23897 16.766 2.23897H15.6171L14.081 0.702881H7.93697L6.40088 2.23897L5.2522 2.23897Z" fill="#C4C4C4"/>
<path fill-rule="evenodd" clip-rule="evenodd" d="M0.256836 5.29869C0.256836 3.61224 1.62968 2.24406 3.32879 2.23903V6.08671C3.32879 6.51671 3.67897 6.84707 4.1122 6.84707H17.9056C18.3388 6.84707 18.689 6.506 18.689 6.08671V2.23903H18.6797C19.4939 2.23653 20.2759 2.55742 20.8536 3.13119C21.4313 3.70495 21.7577 4.48456 21.761 5.29869V22.2194C21.761 23.9088 20.3833 25.279 18.6797 25.279H3.33848C2.52421 25.2815 1.74222 24.9606 1.16453 24.3869C0.586842 23.8131 0.260442 23.0335 0.257196 22.2194L0.256836 5.29869ZM4.86484 12.223C4.86484 12.6348 5.20876 12.9911 5.6327 12.9911H16.3847C16.7993 12.9911 17.1526 12.647 17.1526 12.223C17.1526 11.8114 16.8086 11.4552 16.3847 11.4552H5.6327C5.21806 11.4552 4.86484 11.7991 4.86484 12.223ZM4.86484 18.367C4.86484 18.7786 5.20876 19.1351 5.6327 19.1351H16.3847C16.7993 19.1351 17.1526 18.791 17.1526 18.367C17.1526 17.9554 16.8086 17.599 16.3847 17.599H5.6327C5.21806 17.599 4.86484 17.9431 4.86484 18.367ZM16.3848 14.527H5.63284C5.20873 14.527 4.86497 14.8708 4.86497 15.2949C4.86497 15.7192 5.20872 16.0629 5.63284 16.0629H16.3848C16.8089 16.0629 17.1527 15.7192 17.1527 15.2949C17.1527 14.8708 16.809 14.527 16.3848 14.527Z" fill="#C4C4C4"/>
</svg>
