<svg width="20" height="20" viewBox="0 0 20 20" fill="none" xmlns="http://www.w3.org/2000/svg">
<path d="M3.83332 6.00033C5.02994 6.00033 5.99999 5.03028 5.99999 3.83366C5.99999 2.63704 5.02994 1.66699 3.83332 1.66699C2.63671 1.66699 1.66666 2.63704 1.66666 3.83366C1.66666 5.03028 2.63671 6.00033 3.83332 6.00033Z" fill="black"/>
<path d="M3.83332 12.1663C5.02994 12.1663 5.99999 11.1963 5.99999 9.99967C5.99999 8.80309 5.02994 7.83301 3.83332 7.83301C2.63671 7.83301 1.66666 8.80309 1.66666 9.99967C1.66666 11.1963 2.63671 12.1663 3.83332 12.1663Z" fill="black"/>
<path d="M3.83332 18.3333C5.02994 18.3333 5.99999 17.3632 5.99999 16.1667C5.99999 14.9701 5.02994 14 3.83332 14C2.63671 14 1.66666 14.9701 1.66666 16.1667C1.66666 17.3632 2.63671 18.3333 3.83332 18.3333Z" fill="black"/>
<path d="M8.66668 5.41667H16.8333C17.6667 5.41667 18.4167 4.75 18.4167 3.83333C18.4167 3 17.75 2.25 16.8333 2.25H8.66668C7.83334 2.25 7.08334 2.91667 7.08334 3.83333C7.08334 4.66667 7.75001 5.41667 8.66668 5.41667Z" fill="black"/>
<path d="M16.75 8.41699H8.66668C7.83334 8.41699 7.08334 9.08366 7.08334 10.0003C7.08334 10.8337 7.75001 11.5837 8.66668 11.5837H16.8333C17.6667 11.5837 18.4167 10.917 18.4167 10.0003C18.3333 9.16699 17.6667 8.41699 16.75 8.41699Z" fill="black"/>
<path d="M16.75 14.583H8.66668C7.83334 14.583 7.08334 15.2497 7.08334 16.1663C7.08334 16.9997 7.75001 17.7497 8.66668 17.7497H16.8333C17.6667 17.7497 18.4167 17.083 18.4167 16.1663C18.3333 15.2497 17.6667 14.583 16.75 14.583Z" fill="black"/>
</svg>
