<svg width="24" height="24" viewBox="0 0 24 24" fill="none" xmlns="http://www.w3.org/2000/svg">
<path d="M21.9098 2.12366C21.0911 1.4086 20.17 1 19.0443 1C17.9185 1 16.7927 1.51075 15.974 2.32796L4 14.3817L4.71639 15.0968L5.43279 15.8118L8.19602 18.5699L8.91241 19.2849L9.6288 20L21.7052 7.94624C23.3426 6.31183 23.445 3.65591 21.9098 2.12366Z" fill="#D9B608"/>
<path d="M6.6273 19.6278L4.56826 17.5688L3.78386 16.7844L2.99946 16C2.80336 16.2941 2.70531 16.6863 2.60726 16.9805L1.03847 21.7849C0.940413 22.1771 1.03847 22.4713 1.23456 22.7654C1.43066 22.9615 1.82286 23.0596 2.21506 22.9615L7.0195 21.4908C7.4117 21.3927 7.70585 21.1966 8 21.0986L7.31365 20.4122L6.6273 19.6278Z" fill="#D9B608"/>
</svg>
