<svg width="32" height="32" viewBox="0 0 32 32" fill="none" xmlns="http://www.w3.org/2000/svg">
<path d="M21.3336 8.01509H20.2668V7.48188C20.2668 7.18724 20.028 6.94849 19.7336 6.94849C19.4389 6.94849 19.2002 7.18724 19.2002 7.48188V8.01509H12.8002V7.48188C12.8002 7.18724 12.5614 6.94849 12.2668 6.94849C11.9723 6.94849 11.7336 7.18724 11.7336 7.48188V8.01509H10.6668C9.81825 8.01509 9.00431 8.35223 8.40412 8.95242C7.80394 9.5526 7.4668 10.3665 7.4668 11.2151V21.8821C7.4668 22.7306 7.80394 23.5446 8.40412 24.1447C9.00431 24.7449 9.81825 25.0821 10.6668 25.0821H21.3338C22.1823 25.0821 22.9963 24.7449 23.5964 24.1447C24.1966 23.5446 24.5338 22.7306 24.5338 21.8821V11.2151C24.5338 10.3665 24.1966 9.5526 23.5964 8.95242C22.9963 8.35223 22.1823 8.01509 21.3338 8.01509H21.3336ZM16.0001 21.8821C14.5857 21.8821 13.229 21.3201 12.2289 20.3199C11.2287 19.3197 10.6667 17.9631 10.6667 16.5487C10.6667 15.1342 11.2287 13.7776 12.2289 12.7774C13.229 11.7772 14.5857 11.2153 16.0001 11.2153C17.4145 11.2153 18.7712 11.7772 19.7713 12.7774C20.7715 13.7776 21.3335 15.1342 21.3335 16.5487C21.3335 17.9631 20.7715 19.3197 19.7713 20.3199C18.7712 21.3201 17.4145 21.8821 16.0001 21.8821ZM18.6667 16.5486C18.6667 16.69 18.6105 16.8255 18.5105 16.9257C18.4105 17.0257 18.2747 17.0818 18.1333 17.0818H16.0006L16.0001 17.082C15.7056 17.082 15.4667 16.843 15.4667 16.5486V13.8818C15.4667 13.5873 15.7056 13.3486 16.0001 13.3486C16.2948 13.3486 16.5335 13.5873 16.5335 13.882V16.0152H18.1335C18.428 16.0152 18.6667 16.2539 18.6667 16.5486H18.6667Z" fill="#B3B3B3"/>
</svg>
