<svg width="64" height="64" viewBox="0 0 64 64" fill="none" xmlns="http://www.w3.org/2000/svg">
<path d="M46.4001 41.1667C44.7334 37.1667 41.5667 34.1667 37.7334 32.6667C39.9001 31 41.2334 28.3333 41.2334 25.5C41.2334 20.1667 37.0667 16 31.9001 16C26.7333 16 22.5667 20.1667 22.5667 25.3333C22.5667 28.1667 23.9 30.8333 26.0667 32.5C22.2333 34 19.0667 37 17.4 41C16.7333 42.6667 16.9 44.6667 17.9 46.1667C18.9 47.8333 20.7333 48.6667 22.7333 48.6667H41.2334C43.2334 48.6667 44.9001 47.6667 46.0667 46.1667C47.0667 44.6667 47.2334 42.8333 46.4001 41.1667Z" fill="#AFAFAF"/>
<circle cx="32" cy="32" r="31.5" stroke="#C8C8C8"/>
</svg>
