<svg width="24" height="30" viewBox="0 0 24 30" fill="none" xmlns="http://www.w3.org/2000/svg">
<path d="M0.363734 0C0.122771 0.00074738 0 0.207269 0 0.357242V29.6428C0 29.8298 0.173244 30 0.363734 30H23.636C23.8265 30 23.9995 29.8298 23.9998 29.6428V6.78577C24.0033 6.69135 23.9643 6.59694 23.8976 6.52918L17.3522 0.10065C17.2832 0.0351338 17.1868 -0.00198968 17.091 0.000255203L0.363734 0ZM0.727468 0.714217H16.7272V6.78554C16.7272 6.97263 16.9004 7.14278 17.0909 7.14278H23.2726V29.2855H0.727507L0.727468 0.714217ZM17.4544 1.21645L22.761 6.42859H17.4544V1.21645ZM4.36377 12.1424C4.16287 12.1424 4.00003 12.3023 4.00003 12.4996C4.00003 12.6969 4.16287 12.8569 4.36377 12.8569H19.6362C19.8371 12.8569 20 12.6969 20 12.4996C20 12.3023 19.8371 12.1424 19.6362 12.1424H4.36377ZM4.36377 17.8568C4.16287 17.8568 4.00003 18.0167 4.00003 18.214C4.00003 18.4113 4.16287 18.5713 4.36377 18.5713H19.6362C19.8371 18.5713 20 18.4113 20 18.214C20 18.0167 19.8371 17.8568 19.6362 17.8568H4.36377ZM4.36377 23.5711C4.16287 23.5711 4.00003 23.7311 4.00003 23.9284C4.00003 24.1257 4.16287 24.2856 4.36377 24.2856H19.6362C19.8371 24.2856 20 24.1257 20 23.9284C20 23.7311 19.8371 23.5711 19.6362 23.5711H4.36377Z" fill="black"/>
</svg>
