<svg width="24" height="24" viewBox="0 0 24 24" fill="none" xmlns="http://www.w3.org/2000/svg">
<path d="M5 9C7.20914 9 9 7.20914 9 5C9 2.79086 7.20914 1 5 1C2.79086 1 1 2.79086 1 5C1 7.20914 2.79086 9 5 9Z" fill="black"/>
<path d="M19 23C21.2091 23 23 21.2091 23 19C23 16.7909 21.2091 15 19 15C16.7909 15 15 16.7909 15 19C15 21.2091 16.7909 23 19 23Z" fill="black"/>
<path d="M12.9999 18H7.69992C6.99992 18 6.79992 17.4 6.69992 17.3C6.69992 17.1 6.59992 16.5 7.19992 16.2L18.7999 9.7C19.9999 9 20.5999 7.7 20.1999 6.3C19.7999 4.9 18.6999 4 17.2999 4H10.9999C10.3999 4 9.99992 4.4 9.99992 5C9.99992 5.6 10.3999 6 10.9999 6H17.2999C17.9999 6 18.1999 6.6 18.2999 6.7C18.3999 6.8 18.3999 7.5 17.7999 7.8L6.19992 14.4C4.99992 15.1 4.39992 16.4 4.79992 17.8C5.09992 19.1 6.29992 20 7.69992 20H12.9999C13.5999 20 13.9999 19.6 13.9999 19C13.9999 18.4 13.5999 18 12.9999 18Z" fill="black"/>
</svg>
