<svg width="24" height="24" viewBox="0 0 24 24" fill="none" xmlns="http://www.w3.org/2000/svg">
<path fill-rule="evenodd" clip-rule="evenodd" d="M2.57139 10.7148C2.57139 6.21771 6.21727 2.57154 10.7146 2.57154C15.2117 2.57154 18.8571 6.21741 18.8571 10.7148C18.8571 15.2119 15.2116 18.8573 10.7146 18.8573C6.21756 18.8573 2.57139 15.2117 2.57139 10.7148ZM10.7146 0.000146856C4.79727 0.000146856 0 4.79712 0 10.7148C0 16.6319 4.79697 21.4287 10.7146 21.4287C13.2097 21.4287 15.5059 20.5758 17.3271 19.1454L21.8052 23.6235C22.3074 24.1255 23.1213 24.1255 23.6235 23.6235C24.1255 23.1213 24.1255 22.3074 23.6235 21.8052L19.1454 17.3271C20.5758 15.5059 21.4287 13.2097 21.4287 10.7146C21.4287 4.79727 16.6317 0 10.7148 0L10.7146 0.000146856Z" fill="black"/>
</svg>
