<svg width="22" height="22" viewBox="0 0 22 22" fill="none" xmlns="http://www.w3.org/2000/svg">
<path d="M1.3052 5.39483L4.41825 3.79755L14.4737 8.95703V8.96309C14.3919 8.96067 14.3109 8.97813 14.2372 9.01401L11.2983 10.5223L1.3052 5.39483ZM21.2909 5.39483L11.7713 0.510067C11.4734 0.357321 11.1228 0.357321 10.8249 0.510067L7.88766 2.01716L18.1022 7.03047L21.2909 5.39483ZM10.7691 11.465L0.721534 6.30985C0.721534 6.32998 0.713501 6.34889 0.713501 6.3695V14.832C0.713501 15.0264 0.764297 15.2175 0.860694 15.385C0.957093 15.5526 1.09578 15.6903 1.26187 15.7841L10.7687 21.1499L10.7691 11.465ZM18.7076 7.93482V11.5394C18.7076 11.704 18.6351 11.8597 18.5101 11.963C18.3851 12.066 18.2212 12.1055 18.0645 12.0702L16.9082 11.8083C16.7136 11.7642 16.5111 11.8362 16.3849 11.9945L15.4127 13.2121C15.2709 13.3901 15.0354 13.457 14.8246 13.3796C14.6139 13.3023 14.4733 13.0972 14.4738 12.8673V10.1072L11.8276 11.4649V21.1496L21.3345 15.7838C21.5006 15.6899 21.6392 15.5522 21.7356 15.3847C21.832 15.2171 21.8828 15.0261 21.8828 14.8316V6.36977C21.8828 6.34916 21.876 6.33001 21.8748 6.31013L18.7076 7.93482Z" fill="#CC5500"/>
</svg>
