<svg width="24" height="24" viewBox="0 0 24 24" fill="none" xmlns="http://www.w3.org/2000/svg">
<path d="M22.8 8.53736L21.228 8.12024C20.8051 8.0033 20.4466 7.71075 20.236 7.31093C20.16 7.16903 20.08 7.02732 20 6.8938C19.7612 6.50201 19.6928 6.02304 19.8119 5.57579L20.26 3.94902C20.3559 3.59856 20.3366 3.22466 20.2055 2.88686C20.0742 2.54907 19.8387 2.26656 19.536 2.08446L16.448 0.219898C16.1458 0.0370366 15.7935 -0.0348467 15.4476 0.0158086C15.1017 0.0664592 14.7821 0.236845 14.54 0.499432L13.416 1.70909C13.1142 2.03794 12.6923 2.21707 12.256 2.20124H11.7439C11.3083 2.21279 10.888 2.03439 10.5839 1.70909L9.45995 0.499432C9.21781 0.236869 8.89817 0.066483 8.5523 0.0158086C8.2064 -0.0348419 7.8541 0.037037 7.55193 0.219898L4.44391 2.08856C4.14248 2.27198 3.90819 2.55465 3.77785 2.89225C3.6475 3.22985 3.62857 3.60302 3.72392 3.95312L4.17196 5.57989C4.29589 6.02495 4.23339 6.50371 4 6.89809C3.92 7.03571 3.84 7.1776 3.76392 7.31522C3.55339 7.71502 3.19483 8.0074 2.77197 8.12434L1.19999 8.53737C0.858747 8.62321 0.55483 8.82619 0.337321 9.11352C0.119644 9.40103 0.000891428 9.75613 0 10.1224V13.8765C0.00035712 14.2423 0.119109 14.5974 0.336786 14.8842C0.554642 15.1711 0.858569 15.373 1.20001 15.4573L2.77198 15.8744C3.19484 15.9916 3.55342 16.2839 3.76394 16.6837C3.84001 16.8256 3.92001 16.9673 4.00001 17.1009C4.23876 17.4927 4.30716 17.9716 4.18805 18.4189L3.74001 20.0456C3.64412 20.3963 3.6634 20.77 3.79448 21.1078C3.92573 21.4456 4.16126 21.7281 4.46396 21.9102L7.56787 23.7789H7.56805C7.87019 23.9619 8.22231 24.0338 8.56841 23.9831C8.9143 23.9325 9.23396 23.7621 9.47607 23.4995L10.6 22.2899C10.9036 21.9636 11.3243 21.785 11.76 21.7975H12.272C12.7078 21.7839 13.1291 21.9627 13.4319 22.2899L14.5559 23.4995H14.5561C14.7977 23.7626 15.1173 23.9334 15.4636 23.9842C15.8097 24.0349 16.1621 23.9626 16.4639 23.7788L19.572 21.9102C19.8734 21.7269 20.1079 21.4441 20.2382 21.1065C20.3686 20.7689 20.3875 20.3957 20.292 20.0456L19.8439 18.4188C19.7105 17.9712 19.7673 17.4854 20 17.0841C20.08 16.9464 20.16 16.8046 20.2361 16.6669C20.4466 16.2671 20.8052 15.9748 21.228 15.8578L22.8 15.4407C23.1414 15.3562 23.4453 15.1543 23.6632 14.8675C23.8809 14.5806 23.9996 14.2257 24 13.8597V10.1056C23.9955 9.74232 23.8752 9.39095 23.6579 9.10697C23.4405 8.82299 23.1388 8.62263 22.8 8.53735L22.8 8.53736ZM22.94 13.8641C22.9391 14.1146 22.7737 14.3319 22.54 14.3896L20.9719 14.8067C20.2667 14.9961 19.6677 15.4807 19.316 16.1456C19.2521 16.2708 19.1799 16.3959 19.108 16.521C18.7155 17.1739 18.6064 17.9696 18.808 18.7109L19.2719 20.3336C19.3405 20.5738 19.241 20.8315 19.0319 20.9552L15.9239 22.8364C15.7173 22.9637 15.4537 22.9257 15.288 22.7446L14.168 21.5349C13.6805 21.0051 13.008 20.7042 12.3039 20.7007H11.78C11.0471 20.6815 10.3403 20.9841 9.83194 21.5349L8.71194 22.7446C8.54551 22.9242 8.28301 22.9622 8.07605 22.8364L4.96803 20.9677C4.75893 20.844 4.65946 20.5863 4.72803 20.3461L5.17196 18.7193C5.37357 17.978 5.26446 17.1823 4.87196 16.5294C4.8 16.4043 4.72803 16.2791 4.66392 16.154C4.31232 15.4889 3.7132 15.0045 3.00802 14.8151L1.43997 14.398C1.20622 14.3401 1.04086 14.123 1.03997 13.8723V10.1182C1.04194 9.86721 1.2064 9.64934 1.43997 9.58865L3.00802 9.17153C3.7132 8.98196 4.31229 8.4976 4.66392 7.83245C4.72785 7.70731 4.8 7.58218 4.87196 7.45704C5.26446 6.80418 5.37358 6.00846 5.17196 5.26712L4.72803 3.64874C4.65946 3.40852 4.75893 3.15081 4.96803 3.02715L8.07605 1.146C8.28302 1.02012 8.54554 1.05811 8.71194 1.23781L9.83194 2.44746C10.3385 3.00088 11.0466 3.30407 11.78 3.28171H12.22C12.9541 3.30834 13.6637 3.00443 14.168 2.44746L15.288 1.23781C15.4537 1.05662 15.7173 1.01863 15.9239 1.146L19.0319 3.01466C19.241 3.13831 19.3405 3.39603 19.2719 3.63625L18.828 5.26302C18.6264 6.00436 18.7355 6.80004 19.128 7.45294C19.1999 7.57808 19.2719 7.70321 19.336 7.82835C19.6876 8.4935 20.2867 8.97784 20.9919 9.16724L22.5599 9.58436C22.7935 9.64525 22.958 9.86313 22.9599 10.1141L22.94 13.8641Z" fill="black"/>
<path d="M11.9997 6.00562C10.4774 6.00562 9.01743 6.6363 7.941 7.75882C6.86456 8.88133 6.25977 10.4038 6.25977 11.9913C6.25977 13.5788 6.86456 15.1013 7.941 16.2238C9.01743 17.3463 10.4774 17.977 11.9997 17.977C13.5221 17.977 14.982 17.3463 16.0585 16.2238C17.1349 15.1013 17.7397 13.5788 17.7397 11.9913C17.7376 10.4046 17.1322 8.88319 16.0561 7.76125C14.9803 6.63912 13.5213 6.00786 11.9997 6.00562ZM11.9997 16.8885C10.7542 16.8885 9.55992 16.3725 8.67919 15.454C7.79846 14.5356 7.30365 13.2902 7.30365 11.9913C7.30365 10.6925 7.79846 9.44709 8.67919 8.52866C9.55992 7.61022 10.7542 7.09423 11.9997 7.09423C13.2453 7.09423 14.4396 7.61022 15.3203 8.52866C16.201 9.44709 16.6958 10.6925 16.6958 11.9913C16.6937 13.2894 16.1981 14.5337 15.318 15.4516C14.4378 16.3695 13.2446 16.8862 11.9997 16.8885Z" fill="black"/>
</svg>
