<svg width="32" height="32" viewBox="0 0 32 32" fill="none" xmlns="http://www.w3.org/2000/svg">
<path d="M28.4649 10.6045C28.0656 9.68037 26.9648 8.97893 26.0149 9.0454C25.0651 9.11201 23.9669 8.74076 23.4805 8.27736C22.9941 7.81395 22.5997 6.71827 22.6357 5.76344C22.6717 4.8086 21.9369 3.73861 20.9974 3.36485C20.058 2.9911 18.7882 3.27521 18.1635 3.98949C17.5389 4.7036 16.4919 5.22844 15.8262 5.24897C15.1606 5.2695 14.1008 4.7702 13.4557 4.07397C12.8105 3.37756 11.528 3.12933 10.6039 3.5286C9.67977 3.92787 8.97316 5.02876 9.03977 5.97861C9.10638 6.92842 8.73513 8.02666 8.27172 8.51306C7.80832 8.99946 6.71264 9.38858 5.76297 9.35786C4.81316 9.32696 3.73796 10.0591 3.3642 10.9986C2.99027 11.9382 3.27456 13.2079 3.98866 13.8325C4.70295 14.4571 5.22775 15.5043 5.24832 16.1673C5.26889 16.8304 4.77225 17.8927 4.07332 18.5378C3.3744 19.183 3.12352 20.463 3.52795 21.3923C3.93242 22.3216 5.02811 23.023 5.97796 22.9564C6.92777 22.8898 8.02601 23.261 8.51241 23.7244C8.99881 24.1878 9.39314 25.2784 9.35721 26.2332C9.32128 27.188 10.0561 28.2582 10.9981 28.632C11.9402 29.0057 13.2074 28.7216 13.832 28.0073C14.4567 27.293 15.5012 26.7682 16.1667 26.758C16.8322 26.7478 17.892 27.242 18.5424 27.9382C19.1926 28.6344 20.4726 28.8726 21.3968 28.4732C22.321 28.0739 23.0276 26.9782 22.961 26.0284C22.8944 25.0786 23.2656 23.9804 23.729 23.494C24.1922 23.0077 25.2854 22.6186 26.2403 22.657C27.1951 22.6954 28.2653 21.958 28.639 21.0161C29.0128 20.0739 28.7337 18.8068 28.0144 18.177C27.2949 17.5472 26.7703 16.5129 26.7523 15.8396C26.7344 15.1664 27.231 14.1143 27.9324 13.4691C28.2821 13.0902 28.5174 12.6204 28.6115 12.1136C28.7058 11.6066 28.6549 11.0836 28.4649 10.6045V10.6045ZM17.9689 20.5729C16.7559 21.0974 15.3841 21.1185 14.1555 20.6312C12.9269 20.144 11.9423 19.1885 11.4184 17.9752C10.8944 16.7619 10.8741 15.3901 11.3619 14.1617C11.8496 12.9333 12.8055 11.9492 14.0193 11.4258C15.2328 10.9024 16.6046 10.8827 17.8327 11.3711C19.0609 11.8593 20.0446 12.8158 20.5673 14.0295C21.09 15.2409 21.1109 16.6102 20.6251 17.837C20.1394 19.0636 19.1869 20.0475 17.9766 20.5729L17.9689 20.5729Z" fill="#C4C4C4"/>
</svg>
