<svg width="20" height="19" viewBox="0 0 20 19" fill="none" xmlns="http://www.w3.org/2000/svg">
<path d="M0.879883 9.59998C0.879883 14.6304 4.96948 18.72 9.99988 18.72C15.0303 18.72 19.1199 14.6304 19.1199 9.59998C19.1199 4.56958 15.0303 0.47998 9.99988 0.47998C4.96948 0.47998 0.879883 4.56958 0.879883 9.59998ZM10.5183 4.49278L13.8398 7.81448C13.9743 7.94895 14.0511 8.14087 14.0511 8.33292C14.0511 8.52497 13.9743 8.69775 13.8398 8.85135C13.5519 9.1393 13.091 9.1393 12.8222 8.85135L10.7295 6.75845V14.1888C10.7295 14.5921 10.4031 14.9185 9.99985 14.9185C9.5966 14.9185 9.27021 14.5921 9.27021 14.1888V6.75845L7.19661 8.85121C6.90867 9.13916 6.44781 9.13916 6.17901 8.85121C5.89107 8.56327 5.89107 8.10241 6.17901 7.83361L9.50058 4.51205C9.63505 4.37758 9.82696 4.30084 10.019 4.30084C10.2111 4.30084 10.3838 4.35843 10.5183 4.49276V4.49278Z" fill="#06D6A0"/>
</svg>
