<svg width="32" height="32" viewBox="0 0 32 32" fill="none" xmlns="http://www.w3.org/2000/svg">
<path d="M17.1358 7.97719V23.1772C17.1482 23.3752 17.0821 23.5702 16.9519 23.7201C16.8216 23.8697 16.6376 23.9622 16.4398 23.9772H14.3278C14.3762 23.7133 14.4003 23.4456 14.3998 23.1772C14.3998 21.4624 13.485 19.8777 11.9998 19.0202C10.5146 18.1629 8.68495 18.1629 7.19979 19.0202C5.71462 19.8777 4.79979 21.4624 4.79979 23.1772C4.8005 23.4292 4.82193 23.6808 4.86371 23.9291C4.36552 23.7763 3.93174 23.4625 3.63066 23.037C3.32959 22.6115 3.17799 22.0981 3.19977 21.5771V7.97715C3.16245 7.38305 3.36066 6.79804 3.75136 6.34876C4.14225 5.89965 4.69403 5.62231 5.28777 5.57715H15.0478C15.6413 5.62233 16.1933 5.89965 16.584 6.34876C16.9749 6.79804 17.1731 7.38305 17.1358 7.97715L17.1358 7.97719Z" fill="#C4C4C4"/>
<path d="M12.7994 23.1773C12.7994 24.9446 11.3667 26.3773 9.59941 26.3773C7.8321 26.3773 6.39941 24.9446 6.39941 23.1773C6.39941 21.41 7.8321 19.9773 9.59941 19.9773C11.3667 19.9773 12.7994 21.41 12.7994 23.1773Z" fill="#C4C4C4"/>
<path d="M26.4 23.1773C26.4 24.9446 24.9673 26.3773 23.2 26.3773C21.4327 26.3773 20 24.9446 20 23.1773C20 21.41 21.4327 19.9773 23.2 19.9773C24.9673 19.9773 26.4 21.41 26.4 23.1773Z" fill="#C4C4C4"/>
<path d="M28.1763 15.1773H18.7363V7.97729H23.9761C24.4758 7.97729 24.9631 8.13283 25.3702 8.42247C25.7773 8.71194 26.0841 9.12122 26.2481 9.59335L28.1763 15.1773Z" fill="#C4C4C4"/>
<path d="M28.8002 17.1374V21.5774C28.8006 22.2629 28.5063 22.9156 27.9922 23.3694C27.9988 23.3056 28.0015 23.2415 28.0002 23.1774C28.0006 21.6754 27.2977 20.2601 26.1011 19.3524C24.9045 18.4449 23.3518 18.1499 21.9058 18.5554C20.4595 18.9609 19.2867 20.02 18.7363 21.4173V16.7773H28.7281L28.7601 16.8734C28.7851 16.9591 28.7985 17.0479 28.8001 17.1373L28.8002 17.1374Z" fill="#C4C4C4"/>
</svg>
