<svg width="24" height="24" viewBox="0 0 24 24" fill="none" xmlns="http://www.w3.org/2000/svg">
<path d="M17.4 16.2C15.1 16.2 13.2 14.3 13.2 12C13.2 9.7 15.1 7.8 17.4 7.8H20.3C20.1 5.7 18.3 4 16.1 4H6.1C3.9 4 2 5.8 2 8.1V15.9C2 18.2 3.9 20 6.2 20H16.2C18.4 20 20.2 18.3 20.4 16.2H17.4Z" fill="black"/>
<path d="M20.6 9.7998H17.4C16.2 9.7998 15.2 10.7998 15.2 11.9998C15.2 13.1998 16.2 14.1998 17.4 14.1998H20.6C21.4 14.1998 22 13.5998 22 12.7998V11.1998C22 10.3998 21.4 9.7998 20.6 9.7998Z" fill="black"/>
</svg>
