<svg width="75" height="12" viewBox="0 0 75 12" fill="none" xmlns="http://www.w3.org/2000/svg">
<path d="M1.1 9C1.03333 9 0.976667 8.98 0.93 8.94C0.89 8.89333 0.87 8.83667 0.87 8.77V2.24C0.87 2.16667 0.89 2.11 0.93 2.07C0.976667 2.02333 1.03333 2 1.1 2H1.6C1.68 2 1.74 2.02 1.78 2.06C1.82 2.1 1.84667 2.13333 1.86 2.16L3.97 6.2L6.1 2.16C6.11333 2.13333 6.13667 2.1 6.17 2.06C6.21 2.02 6.27 2 6.35 2H6.84C6.91333 2 6.97 2.02333 7.01 2.07C7.05667 2.11 7.08 2.16667 7.08 2.24V8.77C7.08 8.83667 7.05667 8.89333 7.01 8.94C6.97 8.98 6.91333 9 6.84 9H6.35C6.28333 9 6.22667 8.98 6.18 8.94C6.14 8.89333 6.12 8.83667 6.12 8.77V3.85L4.45 7.11C4.42333 7.17667 4.38333 7.23 4.33 7.27C4.27667 7.30333 4.21 7.32 4.13 7.32H3.82C3.73333 7.32 3.66667 7.30333 3.62 7.27C3.57333 7.23 3.53333 7.17667 3.5 7.11L1.82 3.85V8.77C1.82 8.83667 1.79667 8.89333 1.75 8.94C1.71 8.98 1.65667 9 1.59 9H1.1ZM10.8095 9.1C10.3028 9.1 9.87945 9.00333 9.53945 8.81C9.19945 8.61667 8.93945 8.35 8.75945 8.01C8.57945 7.66333 8.47945 7.27 8.45945 6.83C8.45279 6.71667 8.44945 6.57333 8.44945 6.4C8.44945 6.22 8.45279 6.07667 8.45945 5.97C8.47945 5.52333 8.57945 5.13 8.75945 4.79C8.94612 4.45 9.20945 4.18333 9.54945 3.99C9.88945 3.79667 10.3095 3.7 10.8095 3.7C11.3095 3.7 11.7295 3.79667 12.0695 3.99C12.4095 4.18333 12.6695 4.45 12.8495 4.79C13.0361 5.13 13.1395 5.52333 13.1595 5.97C13.1661 6.07667 13.1695 6.22 13.1695 6.4C13.1695 6.57333 13.1661 6.71667 13.1595 6.83C13.1395 7.27 13.0395 7.66333 12.8595 8.01C12.6795 8.35 12.4195 8.61667 12.0795 8.81C11.7395 9.00333 11.3161 9.1 10.8095 9.1ZM10.8095 8.33C11.2228 8.33 11.5528 8.2 11.7995 7.94C12.0461 7.67333 12.1795 7.28667 12.1995 6.78C12.2061 6.68 12.2095 6.55333 12.2095 6.4C12.2095 6.24667 12.2061 6.12 12.1995 6.02C12.1795 5.51333 12.0461 5.13 11.7995 4.87C11.5528 4.60333 11.2228 4.47 10.8095 4.47C10.3961 4.47 10.0628 4.60333 9.80945 4.87C9.56279 5.13 9.43279 5.51333 9.41945 6.02C9.41279 6.12 9.40945 6.24667 9.40945 6.4C9.40945 6.55333 9.41279 6.68 9.41945 6.78C9.43279 7.28667 9.56279 7.67333 9.80945 7.94C10.0628 8.2 10.3961 8.33 10.8095 8.33ZM14.6516 9C14.585 9 14.5283 8.98 14.4816 8.94C14.4416 8.89333 14.4216 8.83667 14.4216 8.77V4.04C14.4216 3.97333 14.4416 3.91667 14.4816 3.87C14.5283 3.82333 14.585 3.8 14.6516 3.8H15.1116C15.1783 3.8 15.235 3.82333 15.2816 3.87C15.3283 3.91667 15.3516 3.97333 15.3516 4.04V4.48C15.485 4.25333 15.6683 4.08333 15.9016 3.97C16.135 3.85667 16.4183 3.8 16.7516 3.8H17.1416C17.2083 3.8 17.2616 3.82333 17.3016 3.87C17.3483 3.91 17.3716 3.96333 17.3716 4.03V4.44C17.3716 4.50667 17.3483 4.56 17.3016 4.6C17.2616 4.64 17.2083 4.66 17.1416 4.66H16.5416C16.1816 4.66 15.8983 4.76667 15.6916 4.98C15.485 5.18667 15.3816 5.47 15.3816 5.83V8.77C15.3816 8.83667 15.3583 8.89333 15.3116 8.94C15.265 8.98 15.2083 9 15.1416 9H14.6516ZM20.2028 9.1C19.5095 9.1 18.9595 8.89 18.5528 8.47C18.1461 8.04333 17.9228 7.46333 17.8828 6.73C17.8761 6.64333 17.8728 6.53333 17.8728 6.4C17.8728 6.26 17.8761 6.14667 17.8828 6.06C17.9095 5.58667 18.0195 5.17333 18.2128 4.82C18.4061 4.46 18.6695 4.18333 19.0028 3.99C19.3428 3.79667 19.7395 3.7 20.1928 3.7C20.6995 3.7 21.1228 3.80667 21.4628 4.02C21.8095 4.23333 22.0728 4.53667 22.2528 4.93C22.4328 5.32333 22.5228 5.78333 22.5228 6.31V6.48C22.5228 6.55333 22.4995 6.61 22.4528 6.65C22.4128 6.69 22.3595 6.71 22.2928 6.71H18.8328C18.8328 6.71667 18.8328 6.73 18.8328 6.75C18.8328 6.77 18.8328 6.78667 18.8328 6.8C18.8461 7.07333 18.9061 7.33 19.0128 7.57C19.1195 7.80333 19.2728 7.99333 19.4728 8.14C19.6795 8.28667 19.9195 8.36 20.1928 8.36C20.4328 8.36 20.6328 8.32333 20.7928 8.25C20.9528 8.17667 21.0828 8.09667 21.1828 8.01C21.2828 7.91667 21.3495 7.84333 21.3828 7.79C21.4428 7.71 21.4895 7.66333 21.5228 7.65C21.5561 7.63 21.6095 7.62 21.6828 7.62H22.1728C22.2328 7.62 22.2828 7.64 22.3228 7.68C22.3695 7.71333 22.3895 7.76333 22.3828 7.83C22.3761 7.93 22.3228 8.05333 22.2228 8.2C22.1228 8.34 21.9795 8.48 21.7928 8.62C21.6128 8.76 21.3861 8.87667 21.1128 8.97C20.8461 9.05667 20.5428 9.1 20.2028 9.1ZM18.8328 6.02H21.5728V5.99C21.5728 5.69 21.5161 5.42333 21.4028 5.19C21.2961 4.95667 21.1395 4.77333 20.9328 4.64C20.7261 4.5 20.4795 4.43 20.1928 4.43C19.9061 4.43 19.6595 4.5 19.4528 4.64C19.2528 4.77333 19.0995 4.95667 18.9928 5.19C18.8861 5.42333 18.8328 5.69 18.8328 5.99V6.02ZM26.5297 9C26.4564 9 26.3997 8.98 26.3597 8.94C26.3197 8.89333 26.2997 8.83667 26.2997 8.77V2.24C26.2997 2.16667 26.3197 2.11 26.3597 2.07C26.3997 2.02333 26.4564 2 26.5297 2H28.7997C29.4864 2 30.0397 2.10333 30.4597 2.31C30.8797 2.51667 31.1864 2.82333 31.3797 3.23C31.573 3.63 31.673 4.12333 31.6797 4.71C31.6864 5.01 31.6897 5.27333 31.6897 5.5C31.6897 5.72667 31.6864 5.98667 31.6797 6.28C31.6664 6.89333 31.563 7.40333 31.3697 7.81C31.183 8.21 30.883 8.51 30.4697 8.71C30.063 8.90333 29.523 9 28.8497 9H26.5297ZM27.2797 8.15H28.7997C29.2597 8.15 29.6264 8.08667 29.8997 7.96C30.173 7.83333 30.3697 7.63 30.4897 7.35C30.6164 7.07 30.683 6.7 30.6897 6.24C30.703 6.04 30.7097 5.86667 30.7097 5.72C30.7097 5.56667 30.7097 5.41667 30.7097 5.27C30.7097 5.11667 30.703 4.94333 30.6897 4.75C30.6764 4.10333 30.523 3.62667 30.2297 3.32C29.9364 3.00667 29.443 2.85 28.7497 2.85H27.2797V8.15ZM35.1442 9.1C34.4509 9.1 33.9009 8.89 33.4942 8.47C33.0876 8.04333 32.8642 7.46333 32.8242 6.73C32.8176 6.64333 32.8142 6.53333 32.8142 6.4C32.8142 6.26 32.8176 6.14667 32.8242 6.06C32.8509 5.58667 32.9609 5.17333 33.1542 4.82C33.3476 4.46 33.6109 4.18333 33.9442 3.99C34.2842 3.79667 34.6809 3.7 35.1342 3.7C35.6409 3.7 36.0642 3.80667 36.4042 4.02C36.7509 4.23333 37.0142 4.53667 37.1942 4.93C37.3742 5.32333 37.4642 5.78333 37.4642 6.31V6.48C37.4642 6.55333 37.4409 6.61 37.3942 6.65C37.3542 6.69 37.3009 6.71 37.2342 6.71H33.7742C33.7742 6.71667 33.7742 6.73 33.7742 6.75C33.7742 6.77 33.7742 6.78667 33.7742 6.8C33.7876 7.07333 33.8476 7.33 33.9542 7.57C34.0609 7.80333 34.2142 7.99333 34.4142 8.14C34.6209 8.28667 34.8609 8.36 35.1342 8.36C35.3742 8.36 35.5742 8.32333 35.7342 8.25C35.8942 8.17667 36.0242 8.09667 36.1242 8.01C36.2242 7.91667 36.2909 7.84333 36.3242 7.79C36.3842 7.71 36.4309 7.66333 36.4642 7.65C36.4976 7.63 36.5509 7.62 36.6242 7.62H37.1142C37.1742 7.62 37.2242 7.64 37.2642 7.68C37.3109 7.71333 37.3309 7.76333 37.3242 7.83C37.3176 7.93 37.2642 8.05333 37.1642 8.2C37.0642 8.34 36.9209 8.48 36.7342 8.62C36.5542 8.76 36.3276 8.87667 36.0542 8.97C35.7876 9.05667 35.4842 9.1 35.1442 9.1ZM33.7742 6.02H36.5142V5.99C36.5142 5.69 36.4576 5.42333 36.3442 5.19C36.2376 4.95667 36.0809 4.77333 35.8742 4.64C35.6676 4.5 35.4209 4.43 35.1342 4.43C34.8476 4.43 34.6009 4.5 34.3942 4.64C34.1942 4.77333 34.0409 4.95667 33.9342 5.19C33.8276 5.42333 33.7742 5.69 33.7742 5.99V6.02ZM40.6606 9C40.2873 9 39.984 8.93 39.7506 8.79C39.5173 8.64333 39.3473 8.44 39.2406 8.18C39.134 7.91333 39.0806 7.6 39.0806 7.24V4.6H38.3006C38.234 4.6 38.1773 4.58 38.1306 4.54C38.0906 4.49333 38.0706 4.43667 38.0706 4.37V4.03C38.0706 3.96333 38.0906 3.91 38.1306 3.87C38.1773 3.82333 38.234 3.8 38.3006 3.8H39.0806V2.13C39.0806 2.06333 39.1006 2.01 39.1406 1.97C39.1873 1.92333 39.244 1.9 39.3106 1.9H39.7806C39.8473 1.9 39.9006 1.92333 39.9406 1.97C39.9873 2.01 40.0106 2.06333 40.0106 2.13V3.8H41.2506C41.324 3.8 41.3806 3.82333 41.4206 3.87C41.4606 3.91 41.4806 3.96333 41.4806 4.03V4.37C41.4806 4.43667 41.4606 4.49333 41.4206 4.54C41.3806 4.58 41.324 4.6 41.2506 4.6H40.0106V7.17C40.0106 7.48333 40.064 7.73 40.1706 7.91C40.2773 8.09 40.4673 8.18 40.7406 8.18H41.3506C41.4173 8.18 41.4706 8.20333 41.5106 8.25C41.5573 8.29 41.5806 8.34333 41.5806 8.41V8.77C41.5806 8.83667 41.5573 8.89333 41.5106 8.94C41.4706 8.98 41.4173 9 41.3506 9H40.6606ZM43.9869 9.1C43.6535 9.1 43.3502 9.03333 43.0769 8.9C42.8035 8.76667 42.5835 8.58667 42.4169 8.36C42.2502 8.13333 42.1669 7.87667 42.1669 7.59C42.1669 7.13 42.3535 6.76333 42.7269 6.49C43.1002 6.21667 43.5869 6.03667 44.1869 5.95L45.6769 5.74V5.45C45.6769 5.13 45.5835 4.88 45.3969 4.7C45.2169 4.52 44.9202 4.43 44.5069 4.43C44.2135 4.43 43.9735 4.49 43.7869 4.61C43.6002 4.73 43.4702 4.88333 43.3969 5.07C43.3569 5.17 43.2869 5.22 43.1869 5.22H42.7369C42.6635 5.22 42.6069 5.2 42.5669 5.16C42.5335 5.11333 42.5169 5.06 42.5169 5C42.5169 4.9 42.5535 4.77667 42.6269 4.63C42.7069 4.48333 42.8269 4.34 42.9869 4.2C43.1469 4.06 43.3502 3.94333 43.5969 3.85C43.8502 3.75 44.1569 3.7 44.5169 3.7C44.9169 3.7 45.2535 3.75333 45.5269 3.86C45.8002 3.96 46.0135 4.09667 46.1669 4.27C46.3269 4.44333 46.4402 4.64 46.5069 4.86C46.5802 5.08 46.6169 5.30333 46.6169 5.53V8.77C46.6169 8.83667 46.5935 8.89333 46.5469 8.94C46.5069 8.98 46.4535 9 46.3869 9H45.9269C45.8535 9 45.7969 8.98 45.7569 8.94C45.7169 8.89333 45.6969 8.83667 45.6969 8.77V8.34C45.6102 8.46 45.4935 8.58 45.3469 8.7C45.2002 8.81333 45.0169 8.91 44.7969 8.99C44.5769 9.06333 44.3069 9.1 43.9869 9.1ZM44.1969 8.35C44.4702 8.35 44.7202 8.29333 44.9469 8.18C45.1735 8.06 45.3502 7.87667 45.4769 7.63C45.6102 7.38333 45.6769 7.07333 45.6769 6.7V6.42L44.5169 6.59C44.0435 6.65667 43.6869 6.77 43.4469 6.93C43.2069 7.08333 43.0869 7.28 43.0869 7.52C43.0869 7.70667 43.1402 7.86333 43.2469 7.99C43.3602 8.11 43.5002 8.2 43.6669 8.26C43.8402 8.32 44.0169 8.35 44.1969 8.35ZM48.2845 9C48.2178 9 48.1611 8.98 48.1145 8.94C48.0745 8.89333 48.0545 8.83667 48.0545 8.77V4.03C48.0545 3.96333 48.0745 3.91 48.1145 3.87C48.1611 3.82333 48.2178 3.8 48.2845 3.8H48.7645C48.8311 3.8 48.8845 3.82333 48.9245 3.87C48.9711 3.91 48.9945 3.96333 48.9945 4.03V8.77C48.9945 8.83667 48.9711 8.89333 48.9245 8.94C48.8845 8.98 48.8311 9 48.7645 9H48.2845ZM48.2045 2.83C48.1378 2.83 48.0811 2.81 48.0345 2.77C47.9945 2.72333 47.9745 2.66667 47.9745 2.6V2.06C47.9745 1.99333 47.9945 1.93667 48.0345 1.89C48.0811 1.84333 48.1378 1.82 48.2045 1.82H48.8345C48.9011 1.82 48.9578 1.84333 49.0045 1.89C49.0511 1.93667 49.0745 1.99333 49.0745 2.06V2.6C49.0745 2.66667 49.0511 2.72333 49.0045 2.77C48.9578 2.81 48.9011 2.83 48.8345 2.83H48.2045ZM50.7163 9C50.6497 9 50.593 8.98 50.5463 8.94C50.5063 8.89333 50.4863 8.83667 50.4863 8.77V2.13C50.4863 2.06333 50.5063 2.01 50.5463 1.97C50.593 1.92333 50.6497 1.9 50.7163 1.9H51.1863C51.2597 1.9 51.3163 1.92333 51.3563 1.97C51.3963 2.01 51.4163 2.06333 51.4163 2.13V8.77C51.4163 8.83667 51.3963 8.89333 51.3563 8.94C51.3163 8.98 51.2597 9 51.1863 9H50.7163ZM54.708 9.1C54.3346 9.1 54.0146 9.05333 53.748 8.96C53.4813 8.86667 53.2646 8.75333 53.098 8.62C52.9313 8.48667 52.8046 8.35333 52.718 8.22C52.638 8.08667 52.5946 7.98 52.588 7.9C52.5813 7.82667 52.6046 7.77 52.658 7.73C52.7113 7.69 52.7646 7.67 52.818 7.67H53.268C53.3013 7.67 53.328 7.67667 53.348 7.69C53.3746 7.69667 53.408 7.72333 53.448 7.77C53.5346 7.86333 53.6313 7.95667 53.738 8.05C53.8446 8.14333 53.9746 8.22 54.128 8.28C54.288 8.34 54.4846 8.37 54.718 8.37C55.058 8.37 55.338 8.30667 55.558 8.18C55.778 8.04667 55.888 7.85333 55.888 7.6C55.888 7.43333 55.8413 7.3 55.748 7.2C55.6613 7.1 55.5013 7.01 55.268 6.93C55.0413 6.85 54.728 6.76667 54.328 6.68C53.928 6.58667 53.6113 6.47333 53.378 6.34C53.1446 6.2 52.978 6.03667 52.878 5.85C52.778 5.65667 52.728 5.44 52.728 5.2C52.728 4.95333 52.8013 4.71667 52.948 4.49C53.0946 4.25667 53.308 4.06667 53.588 3.92C53.8746 3.77333 54.2313 3.7 54.658 3.7C55.0046 3.7 55.3013 3.74333 55.548 3.83C55.7946 3.91667 55.998 4.02667 56.158 4.16C56.318 4.28667 56.438 4.41333 56.518 4.54C56.598 4.66667 56.6413 4.77333 56.648 4.86C56.6546 4.92667 56.6346 4.98333 56.588 5.03C56.5413 5.07 56.488 5.09 56.428 5.09H56.008C55.9613 5.09 55.9213 5.08 55.888 5.06C55.8613 5.04 55.8346 5.01667 55.808 4.99C55.7413 4.90333 55.6613 4.81667 55.568 4.73C55.4813 4.64333 55.3646 4.57333 55.218 4.52C55.078 4.46 54.8913 4.43 54.658 4.43C54.3246 4.43 54.0746 4.5 53.908 4.64C53.7413 4.78 53.658 4.95667 53.658 5.17C53.658 5.29667 53.6946 5.41 53.768 5.51C53.8413 5.61 53.9813 5.7 54.188 5.78C54.3946 5.86 54.7013 5.94667 55.108 6.04C55.548 6.12667 55.8946 6.24333 56.148 6.39C56.4013 6.53667 56.5813 6.70667 56.688 6.9C56.7946 7.09333 56.848 7.31667 56.848 7.57C56.848 7.85 56.768 8.10667 56.608 8.34C56.448 8.57333 56.208 8.76 55.888 8.9C55.568 9.03333 55.1746 9.1 54.708 9.1Z" fill="#D9B608"/>
<path d="M66 4.5L69 7.5L72 4.5" stroke="#D9B608" stroke-width="2" stroke-linecap="round" stroke-linejoin="round"/>
</svg>
